<svg width="19" height="29" viewBox="0 0 19 29" fill="none" xmlns="http://www.w3.org/2000/svg">
<path d="M14.1429 9.5C14.1429 12.0965 12.0251 14.2143 9.42857 14.2143C6.83203 14.2143 4.71429 12.0965 4.71429 9.5C4.71429 6.90346 6.83203 4.78571 9.42857 4.78571C12.0251 4.78571 14.1429 6.90346 14.1429 9.5ZM18.8571 9.5C18.8571 4.2885 14.6401 0.0714272 9.42857 0.0714272C4.21708 0.0714272 0 4.2885 0 9.5C0 10.6233 0.128906 11.7835 0.607701 12.7963L7.32924 27.0497C7.69754 27.8599 8.54464 28.3571 9.42857 28.3571C10.3125 28.3571 11.1596 27.8599 11.5463 27.0497L18.2494 12.7963C18.7282 11.7835 18.8571 10.6233 18.8571 9.5Z" fill="#47C5FC"/>
</svg>
