<svg width="512" height="89" viewBox="0 0 512 89" fill="none" xmlns="http://www.w3.org/2000/svg">
<path fill-rule="evenodd" clip-rule="evenodd" d="M392.222 86.799H510.821V88.299H391.821L374.5 78.299L375.25 77L392.222 86.799Z" fill="#9FA8B7" fill-opacity="0.15"/>
<path fill-rule="evenodd" clip-rule="evenodd" d="M119.098 86.799H0.5V88.299H119.5L136.821 78.299L136.071 77L119.098 86.799Z" fill="#9FA8B7" fill-opacity="0.15"/>
<path d="M215.8 84V80.9092H212.723V84H211.82V77.2422H212.723V80.0889H215.8V77.2422H216.703V84H215.8ZM224.371 80.6211C224.371 81.8353 224.141 82.7256 223.682 83.292C223.226 83.8584 222.54 84.1416 221.622 84.1416C220.691 84.1416 219.999 83.8535 219.546 83.2773C219.097 82.7012 218.873 81.8158 218.873 80.6211C218.873 79.4362 219.096 78.554 219.542 77.9746C219.988 77.3919 220.681 77.1006 221.622 77.1006C222.549 77.1006 223.24 77.3854 223.692 77.9551C224.144 78.5247 224.371 79.4134 224.371 80.6211ZM223.423 80.6211C223.423 79.6868 223.282 79 222.999 78.5605C222.719 78.1211 222.26 77.9014 221.622 77.9014C220.984 77.9014 220.523 78.1211 220.24 78.5605C219.96 79 219.82 79.6868 219.82 80.6211C219.82 81.5618 219.962 82.2503 220.245 82.6865C220.531 83.1227 220.99 83.3408 221.622 83.3408C222.25 83.3408 222.707 83.1243 222.994 82.6914C223.28 82.2585 223.423 81.5684 223.423 80.6211ZM228.689 78.0576V84H227.79V78.0576H225.549V77.2422H230.93V78.0576H228.689ZM232.719 84V77.2422H236.85V78.0576H233.622V80.0303H236.381V80.8506H233.622V83.1797H236.85V84H232.719ZM239.054 84V77.2422H239.957V83.1797H243.014V84H239.054ZM252.807 84L252.348 83.458C252.016 83.7152 251.696 83.8942 251.386 83.9951C251.077 84.0928 250.745 84.1416 250.39 84.1416C249.648 84.1416 249.065 83.9691 248.642 83.624C248.219 83.279 248.007 82.8184 248.007 82.2422C248.007 81.9525 248.053 81.7018 248.144 81.4902C248.235 81.2754 248.379 81.0752 248.574 80.8896C248.772 80.7008 249.108 80.4681 249.58 80.1914C249.358 79.9375 249.171 79.6803 249.018 79.4199C248.865 79.1595 248.789 78.8991 248.789 78.6387C248.789 77.6133 249.393 77.1006 250.6 77.1006C251.131 77.1006 251.541 77.2243 251.831 77.4717C252.124 77.7158 252.27 78.0283 252.27 78.4092C252.27 78.7705 252.153 79.1058 251.919 79.415C251.684 79.721 251.311 80.0286 250.8 80.3379L252.417 82.252C252.716 81.9004 252.929 81.4593 253.056 80.9287L253.818 81.1191C253.613 81.8711 253.32 82.4554 252.939 82.8721L253.896 84H252.807ZM251.411 78.4189C251.411 78.2269 251.341 78.0674 251.201 77.9404C251.061 77.8135 250.851 77.75 250.571 77.75C250.265 77.75 250.034 77.8232 249.878 77.9697C249.725 78.1162 249.648 78.3262 249.648 78.5996C249.648 78.7721 249.715 78.9577 249.848 79.1562C249.982 79.3516 250.135 79.5534 250.307 79.7617C250.652 79.5697 250.922 79.3581 251.118 79.127C251.313 78.8926 251.411 78.6566 251.411 78.4189ZM250.078 80.7676C249.739 80.9889 249.492 81.1712 249.336 81.3145C249.183 81.4544 249.075 81.5928 249.013 81.7295C248.951 81.8662 248.921 82.0436 248.921 82.2617C248.921 82.6035 249.057 82.8802 249.331 83.0918C249.607 83.3034 249.967 83.4092 250.41 83.4092C250.787 83.4092 251.093 83.349 251.328 83.2285C251.562 83.1081 251.743 82.9958 251.87 82.8916L250.078 80.7676ZM263.099 84L261.375 81.2412H260.198V84H259.295V77.2422H261.395C262.235 77.2422 262.837 77.3968 263.201 77.7061C263.566 78.0153 263.748 78.4938 263.748 79.1416C263.748 79.695 263.636 80.1328 263.411 80.4551C263.19 80.7773 262.829 80.9922 262.327 81.0996L264.158 84H263.099ZM262.816 79.21C262.816 78.764 262.702 78.458 262.474 78.292C262.249 78.1227 261.886 78.0381 261.385 78.0381H260.198V80.4404H261.326C261.704 80.4404 262 80.4014 262.215 80.3232C262.433 80.2419 262.588 80.1149 262.679 79.9424C262.77 79.7666 262.816 79.5225 262.816 79.21ZM266.04 84V77.2422H270.171V78.0576H266.943V80.0303H269.702V80.8506H266.943V83.1797H270.171V84H266.04ZM276.916 82.1494C276.916 82.7809 276.707 83.2708 276.291 83.6191C275.877 83.9674 275.272 84.1416 274.474 84.1416C273.866 84.1416 273.358 84.0342 272.951 83.8193C272.544 83.6045 272.212 83.2708 271.955 82.8184L272.687 82.3301C273.068 83.0039 273.657 83.3408 274.455 83.3408C274.933 83.3408 275.309 83.2415 275.583 83.043C275.86 82.8411 275.998 82.5661 275.998 82.2178C275.998 82.0192 275.954 81.8516 275.866 81.7148C275.778 81.5781 275.663 81.4642 275.519 81.373C275.376 81.2786 275.212 81.2038 275.026 81.1484C274.841 81.0898 274.647 81.0345 274.445 80.9824C274.113 80.901 273.804 80.818 273.517 80.7334C273.231 80.6455 272.982 80.5332 272.77 80.3965C272.562 80.2598 272.398 80.0856 272.277 79.874C272.157 79.6592 272.096 79.3841 272.096 79.0488C272.096 78.4499 272.289 77.9762 272.673 77.6279C273.06 77.2764 273.638 77.1006 274.406 77.1006C275.018 77.1006 275.506 77.2145 275.871 77.4424C276.235 77.667 276.524 77.9567 276.735 78.3115L276.017 78.8193C275.842 78.5264 275.627 78.3001 275.373 78.1406C275.122 77.9811 274.8 77.9014 274.406 77.9014C273.967 77.9014 273.625 77.999 273.381 78.1943C273.137 78.3864 273.014 78.6452 273.014 78.9707C273.014 79.1432 273.05 79.2881 273.122 79.4053C273.197 79.5225 273.303 79.6217 273.439 79.7031C273.576 79.7812 273.745 79.8496 273.947 79.9082C274.152 79.9635 274.385 80.0238 274.645 80.0889C274.951 80.1702 275.243 80.2565 275.519 80.3477C275.796 80.4355 276.037 80.5527 276.242 80.6992C276.45 80.8457 276.615 81.0345 276.735 81.2656C276.856 81.4967 276.916 81.7913 276.916 82.1494ZM284.261 80.6211C284.261 81.8353 284.032 82.7256 283.573 83.292C283.117 83.8584 282.43 84.1416 281.512 84.1416C280.581 84.1416 279.89 83.8535 279.437 83.2773C278.988 82.7012 278.763 81.8158 278.763 80.6211C278.763 79.4362 278.986 78.554 279.432 77.9746C279.878 77.3919 280.572 77.1006 281.512 77.1006C282.44 77.1006 283.13 77.3854 283.583 77.9551C284.035 78.5247 284.261 79.4134 284.261 80.6211ZM283.314 80.6211C283.314 79.6868 283.172 79 282.889 78.5605C282.609 78.1211 282.15 77.9014 281.512 77.9014C280.874 77.9014 280.414 78.1211 280.13 78.5605C279.851 79 279.711 79.6868 279.711 80.6211C279.711 81.5618 279.852 82.2503 280.135 82.6865C280.422 83.1227 280.881 83.3408 281.512 83.3408C282.141 83.3408 282.598 83.1243 282.884 82.6914C283.171 82.2585 283.314 81.5684 283.314 80.6211ZM290.235 84L288.511 81.2412H287.334V84H286.431V77.2422H288.531C289.371 77.2422 289.973 77.3968 290.337 77.7061C290.702 78.0153 290.884 78.4938 290.884 79.1416C290.884 79.695 290.772 80.1328 290.547 80.4551C290.326 80.7773 289.965 80.9922 289.463 81.0996L291.294 84H290.235ZM289.952 79.21C289.952 78.764 289.838 78.458 289.61 78.292C289.385 78.1227 289.022 78.0381 288.521 78.0381H287.334V80.4404H288.462C288.84 80.4404 289.136 80.4014 289.351 80.3232C289.569 80.2419 289.724 80.1149 289.815 79.9424C289.906 79.7666 289.952 79.5225 289.952 79.21ZM295.627 78.0576V84H294.729V78.0576H292.488V77.2422H297.868V78.0576H295.627Z" fill="#546681" fill-opacity="0.4"/>
<path d="M193.351 60.8213C193.351 61.6592 193.2 62.3646 192.899 62.9375C192.606 63.5033 192.205 63.9652 191.696 64.3232C191.188 64.6742 190.593 64.9248 189.913 65.0752C189.24 65.2327 188.524 65.3115 187.765 65.3115C186.963 65.3115 186.261 65.2363 185.659 65.0859C185.058 64.9355 184.531 64.7314 184.08 64.4736C183.629 64.2158 183.242 63.915 182.92 63.5713C182.605 63.2275 182.329 62.8587 182.093 62.4648L184.069 61.0361C184.248 61.3154 184.445 61.5804 184.66 61.8311C184.882 62.0745 185.136 62.2894 185.423 62.4756C185.716 62.6618 186.057 62.8122 186.443 62.9268C186.83 63.0342 187.278 63.0879 187.786 63.0879C188.166 63.0879 188.535 63.0521 188.893 62.9805C189.258 62.9089 189.58 62.7907 189.859 62.626C190.139 62.4613 190.361 62.2464 190.525 61.9814C190.697 61.7165 190.783 61.387 190.783 60.9932C190.783 60.6208 190.701 60.3092 190.536 60.0586C190.379 59.8079 190.164 59.5967 189.892 59.4248C189.619 59.2529 189.301 59.1097 188.936 58.9951C188.57 58.8805 188.18 58.7695 187.765 58.6621C187.006 58.4688 186.3 58.2718 185.648 58.0713C184.997 57.8636 184.431 57.6022 183.951 57.2871C183.471 56.972 183.092 56.571 182.812 56.084C182.54 55.597 182.404 54.974 182.404 54.2148C182.404 53.5417 182.519 52.9365 182.748 52.3994C182.977 51.8551 183.314 51.3932 183.758 51.0137C184.202 50.627 184.753 50.3333 185.412 50.1328C186.078 49.9251 186.841 49.8213 187.7 49.8213C188.345 49.8213 188.932 49.8822 189.462 50.0039C189.999 50.1185 190.482 50.2904 190.912 50.5195C191.349 50.7415 191.739 51.0208 192.083 51.3574C192.427 51.6868 192.728 52.0628 192.985 52.4854L191.041 53.9355C190.647 53.3053 190.182 52.8327 189.645 52.5176C189.107 52.2025 188.452 52.0449 187.679 52.0449C186.841 52.0449 186.175 52.2168 185.681 52.5605C185.194 52.9043 184.95 53.3913 184.95 54.0215C184.95 54.3366 185.015 54.6016 185.144 54.8164C185.28 55.0241 185.484 55.2067 185.756 55.3643C186.035 55.5218 186.382 55.665 186.798 55.7939C187.22 55.9157 187.718 56.0446 188.291 56.1807C188.735 56.2881 189.165 56.4027 189.58 56.5244C190.003 56.6462 190.4 56.7894 190.772 56.9541C191.152 57.1117 191.499 57.3014 191.814 57.5234C192.13 57.7383 192.398 57.9997 192.62 58.3076C192.849 58.6156 193.028 58.9772 193.157 59.3926C193.286 59.8008 193.351 60.277 193.351 60.8213ZM202.041 65C201.719 65.1003 201.354 65.179 200.945 65.2363C200.544 65.3008 200.161 65.333 199.796 65.333C199.18 65.333 198.654 65.2578 198.217 65.1074C197.787 64.9642 197.433 64.7422 197.153 64.4414C196.881 64.1335 196.681 63.7432 196.552 63.2705C196.423 62.7979 196.358 62.2393 196.358 61.5947V55.6113H194.844V53.7314H196.358V50.5947H198.668V53.7314H201.396V55.6113H198.668V61.2402C198.668 61.6413 198.689 61.9814 198.732 62.2607C198.783 62.5329 198.861 62.7549 198.969 62.9268C199.076 63.0986 199.216 63.224 199.388 63.3027C199.567 63.3815 199.782 63.4209 200.032 63.4209C200.283 63.4209 200.548 63.3923 200.827 63.335C201.106 63.2705 201.35 63.1953 201.558 63.1094L202.041 65ZM206.886 63.7002C206.886 64.2301 206.764 64.6061 206.521 64.8281C206.277 65.043 205.887 65.1504 205.35 65.1504C205.056 65.1504 204.812 65.1182 204.619 65.0537C204.426 64.9893 204.268 64.8962 204.146 64.7744C204.032 64.6527 203.95 64.5023 203.899 64.3232C203.849 64.137 203.824 63.9294 203.824 63.7002C203.824 63.1917 203.939 62.8193 204.168 62.583C204.397 62.3467 204.791 62.2285 205.35 62.2285C205.915 62.2285 206.313 62.3467 206.542 62.583C206.771 62.8122 206.886 63.1846 206.886 63.7002ZM227.35 65V53.8496L223.525 61.0791H222.021L218.219 53.8496V65H215.823V50.1328H218.906L222.816 57.7168L226.759 50.1328H229.767V65H227.35ZM239.757 65V63.7217C239.227 64.1943 238.665 64.5811 238.07 64.8818C237.483 65.1826 236.842 65.333 236.147 65.333C235.575 65.333 235.066 65.2471 234.622 65.0752C234.178 64.9033 233.806 64.6634 233.505 64.3555C233.204 64.0404 232.975 63.6715 232.817 63.249C232.66 62.8193 232.581 62.3467 232.581 61.8311C232.581 61.1507 232.692 60.5814 232.914 60.123C233.143 59.6647 233.455 59.2923 233.849 59.0059C234.25 58.7122 234.722 58.4938 235.267 58.3506C235.818 58.2002 236.42 58.0928 237.071 58.0283L239.649 57.7812V57.2549C239.649 56.8825 239.592 56.5745 239.478 56.3311C239.37 56.0804 239.209 55.8799 238.994 55.7295C238.786 55.5791 238.525 55.4753 238.21 55.418C237.902 55.3535 237.551 55.3213 237.157 55.3213C236.778 55.3213 236.445 55.3571 236.158 55.4287C235.879 55.5003 235.635 55.5934 235.428 55.708C235.22 55.8226 235.048 55.9551 234.912 56.1055C234.776 56.2487 234.669 56.3919 234.59 56.5352L232.764 55.3643C232.9 55.1208 233.086 54.8844 233.322 54.6553C233.566 54.4189 233.867 54.2113 234.225 54.0322C234.583 53.846 235.005 53.6956 235.492 53.5811C235.986 53.4665 236.556 53.4092 237.2 53.4092C237.988 53.4092 238.679 53.4736 239.273 53.6025C239.868 53.7314 240.362 53.9463 240.756 54.2471C241.157 54.5479 241.458 54.9525 241.658 55.4609C241.859 55.9622 241.959 56.5889 241.959 57.3408V65H239.757ZM239.649 59.5215L238.038 59.6719C237.544 59.7148 237.104 59.7829 236.717 59.876C236.337 59.9691 236.015 60.098 235.75 60.2627C235.492 60.4274 235.295 60.6351 235.159 60.8857C235.023 61.1292 234.955 61.43 234.955 61.7881C234.955 62.3825 235.113 62.805 235.428 63.0557C235.743 63.2992 236.187 63.4209 236.76 63.4209C236.982 63.4209 237.211 63.3815 237.447 63.3027C237.691 63.224 237.934 63.1201 238.178 62.9912C238.428 62.8623 238.675 62.7119 238.919 62.54C239.17 62.361 239.413 62.1748 239.649 61.9814V59.5215ZM251.702 55.998C251.588 55.9551 251.437 55.9157 251.251 55.8799C251.072 55.8441 250.886 55.8262 250.692 55.8262C250.377 55.8262 250.08 55.8691 249.801 55.9551C249.521 56.041 249.253 56.1592 248.995 56.3096C248.744 56.4528 248.501 56.6247 248.265 56.8252C248.028 57.0257 247.796 57.237 247.566 57.459V65H245.257V53.7314H247.566V55.4502C247.81 55.1924 248.061 54.9489 248.318 54.7197C248.576 54.4906 248.845 54.29 249.124 54.1182C249.41 53.9463 249.708 53.8102 250.016 53.71C250.324 53.6097 250.649 53.5596 250.993 53.5596C251.258 53.5596 251.484 53.5811 251.67 53.624C251.863 53.6598 252.028 53.7135 252.164 53.7852L251.702 55.998ZM256.654 50.7666C256.654 51.2393 256.54 51.5687 256.311 51.7549C256.089 51.9339 255.741 52.0234 255.269 52.0234C254.753 52.0234 254.395 51.916 254.194 51.7012C254.001 51.4863 253.904 51.1748 253.904 50.7666C253.904 50.3226 254.008 50.0039 254.216 49.8105C254.424 49.61 254.774 49.5098 255.269 49.5098C255.763 49.5098 256.117 49.6064 256.332 49.7998C256.547 49.9932 256.654 50.3154 256.654 50.7666ZM254.13 65V53.7314H256.439V65H254.13ZM266.333 65V63.7217C265.803 64.1943 265.241 64.5811 264.646 64.8818C264.059 65.1826 263.418 65.333 262.724 65.333C262.151 65.333 261.642 65.2471 261.198 65.0752C260.754 64.9033 260.382 64.6634 260.081 64.3555C259.78 64.0404 259.551 63.6715 259.394 63.249C259.236 62.8193 259.157 62.3467 259.157 61.8311C259.157 61.1507 259.268 60.5814 259.49 60.123C259.719 59.6647 260.031 59.2923 260.425 59.0059C260.826 58.7122 261.299 58.4938 261.843 58.3506C262.394 58.2002 262.996 58.0928 263.647 58.0283L266.226 57.7812V57.2549C266.226 56.8825 266.168 56.5745 266.054 56.3311C265.946 56.0804 265.785 55.8799 265.57 55.7295C265.363 55.5791 265.101 55.4753 264.786 55.418C264.478 55.3535 264.127 55.3213 263.733 55.3213C263.354 55.3213 263.021 55.3571 262.734 55.4287C262.455 55.5003 262.212 55.5934 262.004 55.708C261.796 55.8226 261.624 55.9551 261.488 56.1055C261.352 56.2487 261.245 56.3919 261.166 56.5352L259.34 55.3643C259.476 55.1208 259.662 54.8844 259.898 54.6553C260.142 54.4189 260.443 54.2113 260.801 54.0322C261.159 53.846 261.581 53.6956 262.068 53.5811C262.562 53.4665 263.132 53.4092 263.776 53.4092C264.564 53.4092 265.255 53.4736 265.85 53.6025C266.444 53.7314 266.938 53.9463 267.332 54.2471C267.733 54.5479 268.034 54.9525 268.234 55.4609C268.435 55.9622 268.535 56.5889 268.535 57.3408V65H266.333ZM266.226 59.5215L264.614 59.6719C264.12 59.7148 263.68 59.7829 263.293 59.876C262.913 59.9691 262.591 60.098 262.326 60.2627C262.068 60.4274 261.871 60.6351 261.735 60.8857C261.599 61.1292 261.531 61.43 261.531 61.7881C261.531 62.3825 261.689 62.805 262.004 63.0557C262.319 63.2992 262.763 63.4209 263.336 63.4209C263.558 63.4209 263.787 63.3815 264.023 63.3027C264.267 63.224 264.51 63.1201 264.754 62.9912C265.005 62.8623 265.252 62.7119 265.495 62.54C265.746 62.361 265.989 62.1748 266.226 61.9814V59.5215ZM286.346 65V58.4473H280.029V65H277.526V50.1328H280.029V56.1592H286.346V50.1328H288.859V65H286.346ZM302.115 59.3926C302.115 60.3092 302.015 61.1328 301.814 61.8633C301.621 62.5938 301.313 63.2168 300.891 63.7324C300.475 64.248 299.942 64.6455 299.29 64.9248C298.638 65.1969 297.858 65.333 296.948 65.333C296.032 65.333 295.244 65.1934 294.585 64.9141C293.926 64.6348 293.385 64.2373 292.963 63.7217C292.548 63.2061 292.24 62.583 292.039 61.8525C291.846 61.1221 291.749 60.3021 291.749 59.3926C291.749 58.4688 291.849 57.638 292.05 56.9004C292.25 56.1628 292.558 55.5361 292.974 55.0205C293.396 54.4977 293.933 54.1003 294.585 53.8281C295.244 53.5488 296.032 53.4092 296.948 53.4092C297.858 53.4092 298.638 53.5488 299.29 53.8281C299.942 54.1003 300.475 54.4977 300.891 55.0205C301.313 55.5361 301.621 56.1628 301.814 56.9004C302.015 57.638 302.115 58.4688 302.115 59.3926ZM299.72 59.3926C299.72 58.0534 299.501 57.0579 299.064 56.4062C298.635 55.7546 297.929 55.4287 296.948 55.4287C295.967 55.4287 295.251 55.7546 294.8 56.4062C294.356 57.0579 294.134 58.0534 294.134 59.3926C294.134 60.696 294.352 61.6771 294.789 62.3359C295.233 62.9948 295.953 63.3242 296.948 63.3242C297.915 63.3242 298.617 62.9948 299.054 62.3359C299.498 61.6771 299.72 60.696 299.72 59.3926ZM310.859 65C310.537 65.1003 310.172 65.179 309.764 65.2363C309.363 65.3008 308.979 65.333 308.614 65.333C307.998 65.333 307.472 65.2578 307.035 65.1074C306.605 64.9642 306.251 64.7422 305.972 64.4414C305.7 64.1335 305.499 63.7432 305.37 63.2705C305.241 62.7979 305.177 62.2393 305.177 61.5947V55.6113H303.662V53.7314H305.177V50.5947H307.486V53.7314H310.215V55.6113H307.486V61.2402C307.486 61.6413 307.508 61.9814 307.551 62.2607C307.601 62.5329 307.68 62.7549 307.787 62.9268C307.895 63.0986 308.034 63.224 308.206 63.3027C308.385 63.3815 308.6 63.4209 308.851 63.4209C309.101 63.4209 309.366 63.3923 309.646 63.335C309.925 63.2705 310.168 63.1953 310.376 63.1094L310.859 65ZM314.522 59.8545C314.53 60.4202 314.587 60.9215 314.694 61.3584C314.809 61.7881 314.984 62.1497 315.221 62.4434C315.457 62.7298 315.761 62.9482 316.134 63.0986C316.513 63.249 316.979 63.3242 317.53 63.3242C318.046 63.3242 318.501 63.2383 318.895 63.0664C319.296 62.8874 319.664 62.5866 320.001 62.1641L321.773 63.3672C321.559 63.6895 321.319 63.9723 321.054 64.2158C320.789 64.4593 320.481 64.6634 320.13 64.8281C319.779 64.9928 319.378 65.1182 318.927 65.2041C318.483 65.29 317.974 65.333 317.401 65.333C315.604 65.333 314.275 64.8389 313.416 63.8506C312.564 62.8551 312.138 61.3906 312.138 59.457C312.138 58.5475 312.227 57.724 312.406 56.9863C312.592 56.2415 312.886 55.6042 313.287 55.0742C313.695 54.5443 314.225 54.1361 314.877 53.8496C315.529 53.556 316.327 53.4092 317.272 53.4092C318.11 53.4092 318.823 53.5345 319.41 53.7852C320.005 54.0358 320.488 54.3903 320.86 54.8486C321.233 55.307 321.505 55.8584 321.677 56.5029C321.849 57.1475 321.935 57.86 321.935 58.6406V59.8545H314.522ZM319.646 58.1572C319.646 57.2191 319.45 56.5065 319.056 56.0195C318.662 55.5254 318.042 55.2783 317.197 55.2783C316.768 55.2783 316.399 55.3428 316.091 55.4717C315.79 55.5934 315.536 55.776 315.328 56.0195C315.128 56.263 314.966 56.5638 314.845 56.9219C314.723 57.2799 314.63 57.6917 314.565 58.1572H319.646ZM324.706 65V49.0049H327.016V65H324.706Z" fill="#546681"/>
<mask id="path-5-inside-1" fill="white">
<path fill-rule="evenodd" clip-rule="evenodd" d="M254.5 0.928932L261.571 8H247.429L254.5 0.928932ZM253.5 10.9289L246.429 18L249.429 21L246.429 24L249.429 27L246.429 30L253.5 37.0711V31.0711V25.0711V22.9289V16.9289V10.9289ZM255.5 10.9289L262.571 18L259.571 21L262.571 24L259.571 27L262.571 30L255.5 37.0711V31.0711V25.0711V22.9289V16.9289V10.9289ZM269.5 27.9289L276.571 35H262.429L269.5 27.9289ZM246.571 35L239.5 27.9289L232.429 35H246.571ZM275.5 30.0711L282.571 23H268.429L275.5 30.0711ZM240.571 23L233.5 30.0711L226.429 23H240.571ZM250.571 11L243.5 18.0711L236.429 11H250.571ZM265.5 18.0711L272.571 11H258.429L265.5 18.0711Z"/>
</mask>
<path d="M261.571 8V9H263.985L262.278 7.29289L261.571 8ZM254.5 0.928932L255.207 0.221825L254.5 -0.485281L253.793 0.221825L254.5 0.928932ZM247.429 8L246.722 7.29289L245.015 9H247.429V8ZM246.429 18L245.722 17.2929L245.015 18L245.722 18.7071L246.429 18ZM253.5 10.9289H254.5V8.51472L252.793 10.2218L253.5 10.9289ZM249.429 21L250.136 21.7071L250.843 21L250.136 20.2929L249.429 21ZM246.429 24L245.722 23.2929L245.015 24L245.722 24.7071L246.429 24ZM249.429 27L250.136 27.7071L250.843 27L250.136 26.2929L249.429 27ZM246.429 30L245.722 29.2929L245.015 30L245.722 30.7071L246.429 30ZM253.5 37.0711L252.793 37.7782L254.5 39.4853V37.0711H253.5ZM262.571 18L263.278 18.7071L263.985 18L263.278 17.2929L262.571 18ZM255.5 10.9289L256.207 10.2218L254.5 8.51472V10.9289H255.5ZM259.571 21L258.864 20.2929L258.157 21L258.864 21.7071L259.571 21ZM262.571 24L263.278 24.7071L263.985 24L263.278 23.2929L262.571 24ZM259.571 27L258.864 26.2929L258.157 27L258.864 27.7071L259.571 27ZM262.571 30L263.278 30.7071L263.985 30L263.278 29.2929L262.571 30ZM255.5 37.0711H254.5V39.4853L256.207 37.7782L255.5 37.0711ZM276.571 35V36H278.985L277.278 34.2929L276.571 35ZM269.5 27.9289L270.207 27.2218L269.5 26.5147L268.793 27.2218L269.5 27.9289ZM262.429 35L261.722 34.2929L260.015 36H262.429V35ZM239.5 27.9289L240.207 27.2218L239.5 26.5147L238.793 27.2218L239.5 27.9289ZM246.571 35V36H248.985L247.278 34.2929L246.571 35ZM232.429 35L231.722 34.2929L230.015 36H232.429V35ZM282.571 23L283.278 23.7071L284.985 22H282.571V23ZM275.5 30.0711L274.793 30.7782L275.5 31.4853L276.207 30.7782L275.5 30.0711ZM268.429 23V22H266.015L267.722 23.7071L268.429 23ZM233.5 30.0711L232.793 30.7782L233.5 31.4853L234.207 30.7782L233.5 30.0711ZM240.571 23L241.278 23.7071L242.985 22H240.571V23ZM226.429 23V22H224.015L225.722 23.7071L226.429 23ZM243.5 18.0711L242.793 18.7782L243.5 19.4853L244.207 18.7782L243.5 18.0711ZM250.571 11L251.278 11.7071L252.985 10H250.571V11ZM236.429 11V10H234.015L235.722 11.7071L236.429 11ZM272.571 11L273.278 11.7071L274.985 10H272.571V11ZM265.5 18.0711L264.793 18.7782L265.5 19.4853L266.207 18.7782L265.5 18.0711ZM258.429 11V10H256.015L257.722 11.7071L258.429 11ZM262.278 7.29289L255.207 0.221825L253.793 1.63604L260.864 8.70711L262.278 7.29289ZM247.429 9H261.571V7H247.429V9ZM253.793 0.221825L246.722 7.29289L248.136 8.70711L255.207 1.63604L253.793 0.221825ZM247.136 18.7071L254.207 11.636L252.793 10.2218L245.722 17.2929L247.136 18.7071ZM250.136 20.2929L247.136 17.2929L245.722 18.7071L248.722 21.7071L250.136 20.2929ZM247.136 24.7071L250.136 21.7071L248.722 20.2929L245.722 23.2929L247.136 24.7071ZM250.136 26.2929L247.136 23.2929L245.722 24.7071L248.722 27.7071L250.136 26.2929ZM247.136 30.7071L250.136 27.7071L248.722 26.2929L245.722 29.2929L247.136 30.7071ZM254.207 36.364L247.136 29.2929L245.722 30.7071L252.793 37.7782L254.207 36.364ZM252.5 31.0711V37.0711H254.5V31.0711H252.5ZM252.5 25.0711V31.0711H254.5V25.0711H252.5ZM252.5 22.9289V25.0711H254.5V22.9289H252.5ZM252.5 16.9289V22.9289H254.5V16.9289H252.5ZM252.5 10.9289V16.9289H254.5V10.9289H252.5ZM263.278 17.2929L256.207 10.2218L254.793 11.636L261.864 18.7071L263.278 17.2929ZM260.278 21.7071L263.278 18.7071L261.864 17.2929L258.864 20.2929L260.278 21.7071ZM263.278 23.2929L260.278 20.2929L258.864 21.7071L261.864 24.7071L263.278 23.2929ZM260.278 27.7071L263.278 24.7071L261.864 23.2929L258.864 26.2929L260.278 27.7071ZM263.278 29.2929L260.278 26.2929L258.864 27.7071L261.864 30.7071L263.278 29.2929ZM256.207 37.7782L263.278 30.7071L261.864 29.2929L254.793 36.364L256.207 37.7782ZM254.5 31.0711V37.0711H256.5V31.0711H254.5ZM254.5 25.0711V31.0711H256.5V25.0711H254.5ZM254.5 22.9289V25.0711H256.5V22.9289H254.5ZM254.5 16.9289V22.9289H256.5V16.9289H254.5ZM254.5 10.9289V16.9289H256.5V10.9289H254.5ZM277.278 34.2929L270.207 27.2218L268.793 28.636L275.864 35.7071L277.278 34.2929ZM262.429 36H276.571V34H262.429V36ZM268.793 27.2218L261.722 34.2929L263.136 35.7071L270.207 28.636L268.793 27.2218ZM238.793 28.636L245.864 35.7071L247.278 34.2929L240.207 27.2218L238.793 28.636ZM233.136 35.7071L240.207 28.636L238.793 27.2218L231.722 34.2929L233.136 35.7071ZM246.571 34H232.429V36H246.571V34ZM281.864 22.2929L274.793 29.364L276.207 30.7782L283.278 23.7071L281.864 22.2929ZM268.429 24H282.571V22H268.429V24ZM276.207 29.364L269.136 22.2929L267.722 23.7071L274.793 30.7782L276.207 29.364ZM234.207 30.7782L241.278 23.7071L239.864 22.2929L232.793 29.364L234.207 30.7782ZM225.722 23.7071L232.793 30.7782L234.207 29.364L227.136 22.2929L225.722 23.7071ZM240.571 22H226.429V24H240.571V22ZM244.207 18.7782L251.278 11.7071L249.864 10.2929L242.793 17.364L244.207 18.7782ZM235.722 11.7071L242.793 18.7782L244.207 17.364L237.136 10.2929L235.722 11.7071ZM250.571 10H236.429V12H250.571V10ZM271.864 10.2929L264.793 17.364L266.207 18.7782L273.278 11.7071L271.864 10.2929ZM258.429 12H272.571V10H258.429V12ZM266.207 17.364L259.136 10.2929L257.722 11.7071L264.793 18.7782L266.207 17.364Z" fill="#CCD3DE" mask="url(#path-5-inside-1)"/>
</svg>
