<svg width="217" height="38" viewBox="0 0 217 38" fill="none" xmlns="http://www.w3.org/2000/svg">
<path d="M74.2996 35V31.9092H71.2234V35H70.3201V28.2422H71.2234V31.0889H74.2996V28.2422H75.2029V35H74.2996ZM82.8707 31.6211C82.8707 32.8353 82.6412 33.7256 82.1822 34.292C81.7265 34.8584 81.0396 35.1416 80.1217 35.1416C79.1907 35.1416 78.499 34.8535 78.0465 34.2773C77.5973 33.7012 77.3727 32.8158 77.3727 31.6211C77.3727 30.4362 77.5956 29.554 78.0416 28.9746C78.4876 28.3919 79.1809 28.1006 80.1217 28.1006C81.0494 28.1006 81.7395 28.3854 82.192 28.9551C82.6445 29.5247 82.8707 30.4134 82.8707 31.6211ZM81.9234 31.6211C81.9234 30.6868 81.7818 30 81.4986 29.5605C81.2187 29.1211 80.7597 28.9014 80.1217 28.9014C79.4837 28.9014 79.023 29.1211 78.7398 29.5605C78.4599 30 78.3199 30.6868 78.3199 31.6211C78.3199 32.5618 78.4615 33.2503 78.7447 33.6865C79.0312 34.1227 79.4902 34.3408 80.1217 34.3408C80.7499 34.3408 81.2073 34.1243 81.4938 33.6914C81.7802 33.2585 81.9234 32.5684 81.9234 31.6211ZM87.1889 29.0576V35H86.2904V29.0576H84.0492V28.2422H89.4301V29.0576H87.1889ZM91.2189 35V28.2422H95.3498V29.0576H92.1223V31.0303H94.8811V31.8506H92.1223V34.1797H95.3498V35H91.2189ZM97.5537 35V28.2422H98.457V34.1797H101.514V35H97.5537ZM111.307 35L110.848 34.458C110.516 34.7152 110.196 34.8942 109.886 34.9951C109.577 35.0928 109.245 35.1416 108.89 35.1416C108.148 35.1416 107.565 34.9691 107.142 34.624C106.719 34.279 106.507 33.8184 106.507 33.2422C106.507 32.9525 106.553 32.7018 106.644 32.4902C106.735 32.2754 106.879 32.0752 107.074 31.8896C107.272 31.7008 107.608 31.4681 108.08 31.1914C107.858 30.9375 107.671 30.6803 107.518 30.4199C107.365 30.1595 107.289 29.8991 107.289 29.6387C107.289 28.6133 107.893 28.1006 109.1 28.1006C109.631 28.1006 110.041 28.2243 110.331 28.4717C110.624 28.7158 110.77 29.0283 110.77 29.4092C110.77 29.7705 110.653 30.1058 110.419 30.415C110.184 30.721 109.811 31.0286 109.3 31.3379L110.917 33.252C111.216 32.9004 111.429 32.4593 111.556 31.9287L112.318 32.1191C112.113 32.8711 111.82 33.4554 111.439 33.8721L112.396 35H111.307ZM109.911 29.4189C109.911 29.2269 109.841 29.0674 109.701 28.9404C109.561 28.8135 109.351 28.75 109.071 28.75C108.765 28.75 108.534 28.8232 108.378 28.9697C108.225 29.1162 108.148 29.3262 108.148 29.5996C108.148 29.7721 108.215 29.9577 108.348 30.1562C108.482 30.3516 108.635 30.5534 108.807 30.7617C109.152 30.5697 109.422 30.3581 109.618 30.127C109.813 29.8926 109.911 29.6566 109.911 29.4189ZM108.578 31.7676C108.239 31.9889 107.992 32.1712 107.836 32.3145C107.683 32.4544 107.575 32.5928 107.513 32.7295C107.451 32.8662 107.421 33.0436 107.421 33.2617C107.421 33.6035 107.557 33.8802 107.831 34.0918C108.107 34.3034 108.467 34.4092 108.91 34.4092C109.287 34.4092 109.593 34.349 109.828 34.2285C110.062 34.1081 110.243 33.9958 110.37 33.8916L108.578 31.7676ZM121.599 35L119.875 32.2412H118.698V35H117.795V28.2422H119.895C120.735 28.2422 121.337 28.3968 121.701 28.7061C122.066 29.0153 122.248 29.4938 122.248 30.1416C122.248 30.695 122.136 31.1328 121.911 31.4551C121.69 31.7773 121.329 31.9922 120.827 32.0996L122.658 35H121.599ZM121.316 30.21C121.316 29.764 121.202 29.458 120.974 29.292C120.749 29.1227 120.386 29.0381 119.885 29.0381H118.698V31.4404H119.826C120.204 31.4404 120.5 31.4014 120.715 31.3232C120.933 31.2419 121.088 31.1149 121.179 30.9424C121.27 30.7666 121.316 30.5225 121.316 30.21ZM124.54 35V28.2422H128.671V29.0576H125.443V31.0303H128.202V31.8506H125.443V34.1797H128.671V35H124.54ZM135.416 33.1494C135.416 33.7809 135.207 34.2708 134.791 34.6191C134.377 34.9674 133.772 35.1416 132.974 35.1416C132.366 35.1416 131.858 35.0342 131.451 34.8193C131.044 34.6045 130.712 34.2708 130.455 33.8184L131.187 33.3301C131.568 34.0039 132.157 34.3408 132.955 34.3408C133.433 34.3408 133.809 34.2415 134.083 34.043C134.36 33.8411 134.498 33.5661 134.498 33.2178C134.498 33.0192 134.454 32.8516 134.366 32.7148C134.278 32.5781 134.163 32.4642 134.019 32.373C133.876 32.2786 133.712 32.2038 133.526 32.1484C133.341 32.0898 133.147 32.0345 132.945 31.9824C132.613 31.901 132.304 31.818 132.017 31.7334C131.731 31.6455 131.482 31.5332 131.27 31.3965C131.062 31.2598 130.898 31.0856 130.777 30.874C130.657 30.6592 130.596 30.3841 130.596 30.0488C130.596 29.4499 130.789 28.9762 131.173 28.6279C131.56 28.2764 132.138 28.1006 132.906 28.1006C133.518 28.1006 134.006 28.2145 134.371 28.4424C134.735 28.667 135.024 28.9567 135.235 29.3115L134.517 29.8193C134.342 29.5264 134.127 29.3001 133.873 29.1406C133.622 28.9811 133.3 28.9014 132.906 28.9014C132.467 28.9014 132.125 28.999 131.881 29.1943C131.637 29.3864 131.514 29.6452 131.514 29.9707C131.514 30.1432 131.55 30.2881 131.622 30.4053C131.697 30.5225 131.803 30.6217 131.939 30.7031C132.076 30.7812 132.245 30.8496 132.447 30.9082C132.652 30.9635 132.885 31.0238 133.145 31.0889C133.451 31.1702 133.743 31.2565 134.019 31.3477C134.296 31.4355 134.537 31.5527 134.742 31.6992C134.95 31.8457 135.115 32.0345 135.235 32.2656C135.356 32.4967 135.416 32.7913 135.416 33.1494ZM142.761 31.6211C142.761 32.8353 142.532 33.7256 142.073 34.292C141.617 34.8584 140.93 35.1416 140.012 35.1416C139.081 35.1416 138.39 34.8535 137.937 34.2773C137.488 33.7012 137.263 32.8158 137.263 31.6211C137.263 30.4362 137.486 29.554 137.932 28.9746C138.378 28.3919 139.072 28.1006 140.012 28.1006C140.94 28.1006 141.63 28.3854 142.083 28.9551C142.535 29.5247 142.761 30.4134 142.761 31.6211ZM141.814 31.6211C141.814 30.6868 141.672 30 141.389 29.5605C141.109 29.1211 140.65 28.9014 140.012 28.9014C139.374 28.9014 138.914 29.1211 138.63 29.5605C138.351 30 138.211 30.6868 138.211 31.6211C138.211 32.5618 138.352 33.2503 138.635 33.6865C138.922 34.1227 139.381 34.3408 140.012 34.3408C140.641 34.3408 141.098 34.1243 141.384 33.6914C141.671 33.2585 141.814 32.5684 141.814 31.6211ZM148.735 35L147.011 32.2412H145.834V35H144.931V28.2422H147.031C147.871 28.2422 148.473 28.3968 148.837 28.7061C149.202 29.0153 149.384 29.4938 149.384 30.1416C149.384 30.695 149.272 31.1328 149.047 31.4551C148.826 31.7773 148.465 31.9922 147.963 32.0996L149.794 35H148.735ZM148.452 30.21C148.452 29.764 148.338 29.458 148.11 29.292C147.885 29.1227 147.522 29.0381 147.021 29.0381H145.834V31.4404H146.962C147.34 31.4404 147.636 31.4014 147.851 31.3232C148.069 31.2419 148.224 31.1149 148.315 30.9424C148.406 30.7666 148.452 30.5225 148.452 30.21ZM154.127 29.0576V35H153.229V29.0576H150.988V28.2422H156.368V29.0576H154.127Z" fill="#546681" fill-opacity="0.4"/>
<path d="M81.3506 14.8213C81.3506 15.6592 81.2002 16.3646 80.8994 16.9375C80.6058 17.5033 80.2048 17.9652 79.6963 18.3232C79.1878 18.6742 78.5934 18.9248 77.9131 19.0752C77.2399 19.2327 76.5238 19.3115 75.7646 19.3115C74.9626 19.3115 74.2607 19.2363 73.6592 19.0859C73.0576 18.9355 72.5312 18.7314 72.0801 18.4736C71.6289 18.2158 71.2422 17.915 70.9199 17.5713C70.6048 17.2275 70.3291 16.8587 70.0928 16.4648L72.0693 15.0361C72.2484 15.3154 72.4453 15.5804 72.6602 15.8311C72.8822 16.0745 73.1364 16.2894 73.4229 16.4756C73.7165 16.6618 74.0566 16.8122 74.4434 16.9268C74.8301 17.0342 75.2777 17.0879 75.7861 17.0879C76.1657 17.0879 76.5345 17.0521 76.8926 16.9805C77.2578 16.9089 77.5801 16.7907 77.8594 16.626C78.1387 16.4613 78.3607 16.2464 78.5254 15.9814C78.6973 15.7165 78.7832 15.387 78.7832 14.9932C78.7832 14.6208 78.7008 14.3092 78.5361 14.0586C78.3786 13.8079 78.1637 13.5967 77.8916 13.4248C77.6195 13.2529 77.3008 13.1097 76.9355 12.9951C76.5703 12.8805 76.18 12.7695 75.7646 12.6621C75.0055 12.4688 74.3001 12.2718 73.6484 12.0713C72.9967 11.8636 72.431 11.6022 71.9512 11.2871C71.4714 10.972 71.0918 10.571 70.8125 10.084C70.5404 9.59701 70.4043 8.97396 70.4043 8.21484C70.4043 7.54167 70.5189 6.93652 70.748 6.39941C70.9772 5.85514 71.3138 5.39323 71.7578 5.01367C72.2018 4.62695 72.7533 4.33333 73.4121 4.13281C74.0781 3.92513 74.8408 3.82129 75.7002 3.82129C76.3447 3.82129 76.932 3.88216 77.4619 4.00391C77.999 4.11849 78.4824 4.29036 78.9121 4.51953C79.349 4.74154 79.7393 5.02083 80.083 5.35742C80.4268 5.68685 80.7275 6.06283 80.9854 6.48535L79.041 7.93555C78.6471 7.30534 78.1816 6.83268 77.6445 6.51758C77.1074 6.20247 76.4521 6.04492 75.6787 6.04492C74.8408 6.04492 74.1748 6.2168 73.6807 6.56055C73.1937 6.9043 72.9502 7.39128 72.9502 8.02148C72.9502 8.33659 73.0146 8.60156 73.1436 8.81641C73.2796 9.02409 73.4837 9.20671 73.7559 9.36426C74.0352 9.52181 74.3825 9.66504 74.7979 9.79395C75.2204 9.91569 75.7181 10.0446 76.291 10.1807C76.735 10.2881 77.1647 10.4027 77.5801 10.5244C78.0026 10.6462 78.4001 10.7894 78.7725 10.9541C79.152 11.1117 79.4993 11.3014 79.8145 11.5234C80.1296 11.7383 80.3981 11.9997 80.6201 12.3076C80.8493 12.6156 81.0283 12.9772 81.1572 13.3926C81.2861 13.8008 81.3506 14.277 81.3506 14.8213ZM90.041 19C89.7188 19.1003 89.3535 19.179 88.9453 19.2363C88.5443 19.3008 88.1611 19.333 87.7959 19.333C87.18 19.333 86.6536 19.2578 86.2168 19.1074C85.7871 18.9642 85.4326 18.7422 85.1533 18.4414C84.8812 18.1335 84.6807 17.7432 84.5518 17.2705C84.4229 16.7979 84.3584 16.2393 84.3584 15.5947V9.61133H82.8438V7.73145H84.3584V4.59473H86.668V7.73145H89.3965V9.61133H86.668V15.2402C86.668 15.6413 86.6895 15.9814 86.7324 16.2607C86.7826 16.5329 86.8613 16.7549 86.9688 16.9268C87.0762 17.0986 87.2158 17.224 87.3877 17.3027C87.5667 17.3815 87.7816 17.4209 88.0322 17.4209C88.2829 17.4209 88.5479 17.3923 88.8271 17.335C89.1064 17.2705 89.3499 17.1953 89.5576 17.1094L90.041 19ZM94.8857 17.7002C94.8857 18.2301 94.764 18.6061 94.5205 18.8281C94.277 19.043 93.8867 19.1504 93.3496 19.1504C93.056 19.1504 92.8125 19.1182 92.6191 19.0537C92.4258 18.9893 92.2682 18.8962 92.1465 18.7744C92.0319 18.6527 91.9495 18.5023 91.8994 18.3232C91.8493 18.137 91.8242 17.9294 91.8242 17.7002C91.8242 17.1917 91.9388 16.8193 92.168 16.583C92.3971 16.3467 92.791 16.2285 93.3496 16.2285C93.9154 16.2285 94.3128 16.3467 94.542 16.583C94.7712 16.8122 94.8857 17.1846 94.8857 17.7002ZM115.35 19V7.84961L111.525 15.0791H110.021L106.219 7.84961V19H103.823V4.13281H106.906L110.816 11.7168L114.759 4.13281H117.767V19H115.35ZM127.757 19V17.7217C127.227 18.1943 126.665 18.5811 126.07 18.8818C125.483 19.1826 124.842 19.333 124.147 19.333C123.575 19.333 123.066 19.2471 122.622 19.0752C122.178 18.9033 121.806 18.6634 121.505 18.3555C121.204 18.0404 120.975 17.6715 120.817 17.249C120.66 16.8193 120.581 16.3467 120.581 15.8311C120.581 15.1507 120.692 14.5814 120.914 14.123C121.143 13.6647 121.455 13.2923 121.849 13.0059C122.25 12.7122 122.722 12.4938 123.267 12.3506C123.818 12.2002 124.42 12.0928 125.071 12.0283L127.649 11.7812V11.2549C127.649 10.8825 127.592 10.5745 127.478 10.3311C127.37 10.0804 127.209 9.87988 126.994 9.72949C126.786 9.5791 126.525 9.47526 126.21 9.41797C125.902 9.35352 125.551 9.32129 125.157 9.32129C124.778 9.32129 124.445 9.3571 124.158 9.42871C123.879 9.50033 123.635 9.59342 123.428 9.70801C123.22 9.82259 123.048 9.95508 122.912 10.1055C122.776 10.2487 122.669 10.3919 122.59 10.5352L120.764 9.36426C120.9 9.12077 121.086 8.88444 121.322 8.65527C121.566 8.41895 121.867 8.21126 122.225 8.03223C122.583 7.84603 123.005 7.69564 123.492 7.58105C123.986 7.46647 124.556 7.40918 125.2 7.40918C125.988 7.40918 126.679 7.47363 127.273 7.60254C127.868 7.73145 128.362 7.94629 128.756 8.24707C129.157 8.54785 129.458 8.95247 129.658 9.46094C129.859 9.96224 129.959 10.5889 129.959 11.3408V19H127.757ZM127.649 13.5215L126.038 13.6719C125.544 13.7148 125.104 13.7829 124.717 13.876C124.337 13.9691 124.015 14.098 123.75 14.2627C123.492 14.4274 123.295 14.6351 123.159 14.8857C123.023 15.1292 122.955 15.43 122.955 15.7881C122.955 16.3825 123.113 16.805 123.428 17.0557C123.743 17.2992 124.187 17.4209 124.76 17.4209C124.982 17.4209 125.211 17.3815 125.447 17.3027C125.691 17.224 125.934 17.1201 126.178 16.9912C126.428 16.8623 126.675 16.7119 126.919 16.54C127.17 16.361 127.413 16.1748 127.649 15.9814V13.5215ZM139.702 9.99805C139.588 9.95508 139.437 9.91569 139.251 9.87988C139.072 9.84408 138.886 9.82617 138.692 9.82617C138.377 9.82617 138.08 9.86914 137.801 9.95508C137.521 10.041 137.253 10.1592 136.995 10.3096C136.744 10.4528 136.501 10.6247 136.265 10.8252C136.028 11.0257 135.796 11.237 135.566 11.459V19H133.257V7.73145H135.566V9.4502C135.81 9.19238 136.061 8.94889 136.318 8.71973C136.576 8.49056 136.845 8.29004 137.124 8.11816C137.41 7.94629 137.708 7.81022 138.016 7.70996C138.324 7.6097 138.649 7.55957 138.993 7.55957C139.258 7.55957 139.484 7.58105 139.67 7.62402C139.863 7.65983 140.028 7.71354 140.164 7.78516L139.702 9.99805ZM144.654 4.7666C144.654 5.23926 144.54 5.56868 144.311 5.75488C144.089 5.93392 143.741 6.02344 143.269 6.02344C142.753 6.02344 142.395 5.91602 142.194 5.70117C142.001 5.48633 141.904 5.1748 141.904 4.7666C141.904 4.32259 142.008 4.00391 142.216 3.81055C142.424 3.61003 142.774 3.50977 143.269 3.50977C143.763 3.50977 144.117 3.60645 144.332 3.7998C144.547 3.99316 144.654 4.31543 144.654 4.7666ZM142.13 19V7.73145H144.439V19H142.13ZM154.333 19V17.7217C153.803 18.1943 153.241 18.5811 152.646 18.8818C152.059 19.1826 151.418 19.333 150.724 19.333C150.151 19.333 149.642 19.2471 149.198 19.0752C148.754 18.9033 148.382 18.6634 148.081 18.3555C147.78 18.0404 147.551 17.6715 147.394 17.249C147.236 16.8193 147.157 16.3467 147.157 15.8311C147.157 15.1507 147.268 14.5814 147.49 14.123C147.719 13.6647 148.031 13.2923 148.425 13.0059C148.826 12.7122 149.299 12.4938 149.843 12.3506C150.394 12.2002 150.996 12.0928 151.647 12.0283L154.226 11.7812V11.2549C154.226 10.8825 154.168 10.5745 154.054 10.3311C153.946 10.0804 153.785 9.87988 153.57 9.72949C153.363 9.5791 153.101 9.47526 152.786 9.41797C152.478 9.35352 152.127 9.32129 151.733 9.32129C151.354 9.32129 151.021 9.3571 150.734 9.42871C150.455 9.50033 150.212 9.59342 150.004 9.70801C149.796 9.82259 149.624 9.95508 149.488 10.1055C149.352 10.2487 149.245 10.3919 149.166 10.5352L147.34 9.36426C147.476 9.12077 147.662 8.88444 147.898 8.65527C148.142 8.41895 148.443 8.21126 148.801 8.03223C149.159 7.84603 149.581 7.69564 150.068 7.58105C150.562 7.46647 151.132 7.40918 151.776 7.40918C152.564 7.40918 153.255 7.47363 153.85 7.60254C154.444 7.73145 154.938 7.94629 155.332 8.24707C155.733 8.54785 156.034 8.95247 156.234 9.46094C156.435 9.96224 156.535 10.5889 156.535 11.3408V19H154.333ZM154.226 13.5215L152.614 13.6719C152.12 13.7148 151.68 13.7829 151.293 13.876C150.913 13.9691 150.591 14.098 150.326 14.2627C150.068 14.4274 149.871 14.6351 149.735 14.8857C149.599 15.1292 149.531 15.43 149.531 15.7881C149.531 16.3825 149.689 16.805 150.004 17.0557C150.319 17.2992 150.763 17.4209 151.336 17.4209C151.558 17.4209 151.787 17.3815 152.023 17.3027C152.267 17.224 152.51 17.1201 152.754 16.9912C153.005 16.8623 153.252 16.7119 153.495 16.54C153.746 16.361 153.989 16.1748 154.226 15.9814V13.5215ZM174.346 19V12.4473H168.029V19H165.526V4.13281H168.029V10.1592H174.346V4.13281H176.859V19H174.346ZM190.115 13.3926C190.115 14.3092 190.015 15.1328 189.814 15.8633C189.621 16.5938 189.313 17.2168 188.891 17.7324C188.475 18.248 187.942 18.6455 187.29 18.9248C186.638 19.1969 185.858 19.333 184.948 19.333C184.032 19.333 183.244 19.1934 182.585 18.9141C181.926 18.6348 181.385 18.2373 180.963 17.7217C180.548 17.2061 180.24 16.583 180.039 15.8525C179.846 15.1221 179.749 14.3021 179.749 13.3926C179.749 12.4688 179.849 11.638 180.05 10.9004C180.25 10.1628 180.558 9.53613 180.974 9.02051C181.396 8.49772 181.933 8.10026 182.585 7.82812C183.244 7.54883 184.032 7.40918 184.948 7.40918C185.858 7.40918 186.638 7.54883 187.29 7.82812C187.942 8.10026 188.475 8.49772 188.891 9.02051C189.313 9.53613 189.621 10.1628 189.814 10.9004C190.015 11.638 190.115 12.4688 190.115 13.3926ZM187.72 13.3926C187.72 12.0534 187.501 11.0579 187.064 10.4062C186.635 9.75456 185.929 9.42871 184.948 9.42871C183.967 9.42871 183.251 9.75456 182.8 10.4062C182.356 11.0579 182.134 12.0534 182.134 13.3926C182.134 14.696 182.352 15.6771 182.789 16.3359C183.233 16.9948 183.953 17.3242 184.948 17.3242C185.915 17.3242 186.617 16.9948 187.054 16.3359C187.498 15.6771 187.72 14.696 187.72 13.3926ZM198.859 19C198.537 19.1003 198.172 19.179 197.764 19.2363C197.363 19.3008 196.979 19.333 196.614 19.333C195.998 19.333 195.472 19.2578 195.035 19.1074C194.605 18.9642 194.251 18.7422 193.972 18.4414C193.7 18.1335 193.499 17.7432 193.37 17.2705C193.241 16.7979 193.177 16.2393 193.177 15.5947V9.61133H191.662V7.73145H193.177V4.59473H195.486V7.73145H198.215V9.61133H195.486V15.2402C195.486 15.6413 195.508 15.9814 195.551 16.2607C195.601 16.5329 195.68 16.7549 195.787 16.9268C195.895 17.0986 196.034 17.224 196.206 17.3027C196.385 17.3815 196.6 17.4209 196.851 17.4209C197.101 17.4209 197.366 17.3923 197.646 17.335C197.925 17.2705 198.168 17.1953 198.376 17.1094L198.859 19ZM202.522 13.8545C202.53 14.4202 202.587 14.9215 202.694 15.3584C202.809 15.7881 202.984 16.1497 203.221 16.4434C203.457 16.7298 203.761 16.9482 204.134 17.0986C204.513 17.249 204.979 17.3242 205.53 17.3242C206.046 17.3242 206.501 17.2383 206.895 17.0664C207.296 16.8874 207.664 16.5866 208.001 16.1641L209.773 17.3672C209.559 17.6895 209.319 17.9723 209.054 18.2158C208.789 18.4593 208.481 18.6634 208.13 18.8281C207.779 18.9928 207.378 19.1182 206.927 19.2041C206.483 19.29 205.974 19.333 205.401 19.333C203.604 19.333 202.275 18.8389 201.416 17.8506C200.564 16.8551 200.138 15.3906 200.138 13.457C200.138 12.5475 200.227 11.724 200.406 10.9863C200.592 10.2415 200.886 9.60417 201.287 9.07422C201.695 8.54427 202.225 8.13607 202.877 7.84961C203.529 7.55599 204.327 7.40918 205.272 7.40918C206.11 7.40918 206.823 7.53451 207.41 7.78516C208.005 8.03581 208.488 8.3903 208.86 8.84863C209.233 9.30697 209.505 9.8584 209.677 10.5029C209.849 11.1475 209.935 11.86 209.935 12.6406V13.8545H202.522ZM207.646 12.1572C207.646 11.2191 207.45 10.5065 207.056 10.0195C206.662 9.52539 206.042 9.27832 205.197 9.27832C204.768 9.27832 204.399 9.34277 204.091 9.47168C203.79 9.59342 203.536 9.77604 203.328 10.0195C203.128 10.263 202.966 10.5638 202.845 10.9219C202.723 11.2799 202.63 11.6917 202.565 12.1572H207.646ZM212.706 19V3.00488H215.016V19H212.706Z" fill="#546681"/>
<mask id="path-3-inside-1" fill="white">
<path fill-rule="evenodd" clip-rule="evenodd" d="M30 0L37.557 7.43455H22.443L30 0ZM28.9313 10.514L21.3743 17.9486L24.5805 21.1028L21.3743 24.257L24.5805 27.4112L21.3743 30.5654L28.9313 38V31.6916V25.3831V23.1309V16.8225V10.514ZM31.0687 10.514L38.6257 17.9486L35.4195 21.1028L38.6257 24.257L35.4195 27.4112L38.6257 30.5654L31.0687 38V31.6916V25.3831V23.1309V16.8225V10.514ZM46.0307 28.3879L53.5877 35.8225H38.4738L46.0307 28.3879ZM21.5262 35.8225L13.9693 28.3879L6.4123 35.8225H21.5262ZM52.443 30.6402L60 23.2056H44.8861L52.443 30.6402ZM15.1139 23.2056L7.55696 30.6402L0 23.2056H15.1139ZM25.8011 10.5888L18.2441 18.0233L10.6872 10.5888H25.8011ZM41.7559 18.0233L49.3128 10.5888H34.1989L41.7559 18.0233Z"/>
</mask>
<path d="M37.557 7.43455V8.43455H39.9993L38.2583 6.7217L37.557 7.43455ZM30 0L30.7013 -0.712857L30 -1.40281L29.2987 -0.712857L30 0ZM22.443 7.43455L21.7417 6.7217L20.0007 8.43455H22.443V7.43455ZM21.3743 17.9486L20.673 17.2357L19.9484 17.9486L20.673 18.6615L21.3743 17.9486ZM28.9313 10.514H29.9313V8.12744L28.23 9.80119L28.9313 10.514ZM24.5805 21.1028L25.2818 21.8157L26.0064 21.1028L25.2818 20.39L24.5805 21.1028ZM21.3743 24.257L20.673 23.5442L19.9484 24.257L20.673 24.9699L21.3743 24.257ZM24.5805 27.4112L25.2818 28.1241L26.0064 27.4112L25.2818 26.6984L24.5805 27.4112ZM21.3743 30.5654L20.673 29.8526L19.9484 30.5654L20.673 31.2783L21.3743 30.5654ZM28.9313 38L28.23 38.7129L29.9313 40.3866V38H28.9313ZM38.6257 17.9486L39.327 18.6615L40.0516 17.9486L39.327 17.2357L38.6257 17.9486ZM31.0687 10.514L31.77 9.80119L30.0687 8.12744V10.514H31.0687ZM35.4195 21.1028L34.7182 20.39L33.9936 21.1028L34.7182 21.8157L35.4195 21.1028ZM38.6257 24.257L39.327 24.9699L40.0516 24.257L39.327 23.5442L38.6257 24.257ZM35.4195 27.4112L34.7182 26.6984L33.9936 27.4112L34.7182 28.1241L35.4195 27.4112ZM38.6257 30.5654L39.327 31.2783L40.0516 30.5654L39.327 29.8526L38.6257 30.5654ZM31.0687 38H30.0687V40.3866L31.77 38.7129L31.0687 38ZM53.5877 35.8225V36.8225H56.0301L54.289 35.1096L53.5877 35.8225ZM46.0307 28.3879L46.732 27.6751L46.0307 26.9851L45.3294 27.6751L46.0307 28.3879ZM38.4738 35.8225L37.7725 35.1096L36.0314 36.8225H38.4738V35.8225ZM13.9693 28.3879L14.6706 27.6751L13.9693 26.9851L13.2679 27.6751L13.9693 28.3879ZM21.5262 35.8225V36.8225H23.9686L22.2275 35.1096L21.5262 35.8225ZM6.4123 35.8225L5.71099 35.1096L3.96993 36.8225H6.4123V35.8225ZM60 23.2056L60.7013 23.9185L62.4424 22.2056H60V23.2056ZM52.443 30.6402L51.7417 31.353L52.443 32.043L53.1443 31.353L52.443 30.6402ZM44.8861 23.2056V22.2056H42.4437L44.1848 23.9185L44.8861 23.2056ZM7.55696 30.6402L6.85565 31.353L7.55696 32.043L8.25827 31.353L7.55696 30.6402ZM15.1139 23.2056L15.8152 23.9185L17.5563 22.2056H15.1139V23.2056ZM0 23.2056V22.2056H-2.44237L-0.70131 23.9185L0 23.2056ZM18.2441 18.0233L17.5428 18.7362L18.2441 19.4261L18.9454 18.7362L18.2441 18.0233ZM25.8011 10.5888L26.5024 11.3016L28.2435 9.58876H25.8011V10.5888ZM10.6872 10.5888V9.58876H8.24479L9.98585 11.3016L10.6872 10.5888ZM49.3128 10.5888L50.0141 11.3016L51.7552 9.58876H49.3128V10.5888ZM41.7559 18.0233L41.0546 18.7362L41.7559 19.4261L42.4572 18.7362L41.7559 18.0233ZM34.1989 10.5888V9.58876H31.7565L33.4976 11.3016L34.1989 10.5888ZM38.2583 6.7217L30.7013 -0.712857L29.2987 0.712857L36.8557 8.14741L38.2583 6.7217ZM22.443 8.43455H37.557V6.43455H22.443V8.43455ZM29.2987 -0.712857L21.7417 6.7217L23.1443 8.14741L30.7013 0.712857L29.2987 -0.712857ZM22.0756 18.6615L29.6326 11.2269L28.23 9.80119L20.673 17.2357L22.0756 18.6615ZM25.2818 20.39L22.0756 17.2357L20.673 18.6615L23.8792 21.8157L25.2818 20.39ZM22.0756 24.9699L25.2818 21.8157L23.8792 20.39L20.673 23.5442L22.0756 24.9699ZM25.2818 26.6984L22.0756 23.5442L20.673 24.9699L23.8792 28.1241L25.2818 26.6984ZM22.0756 31.2783L25.2818 28.1241L23.8792 26.6984L20.673 29.8526L22.0756 31.2783ZM29.6326 37.2871L22.0756 29.8526L20.673 31.2783L28.23 38.7129L29.6326 37.2871ZM27.9313 31.6916V38H29.9313V31.6916H27.9313ZM27.9313 25.3831V31.6916H29.9313V25.3831H27.9313ZM27.9313 23.1309V25.3831H29.9313V23.1309H27.9313ZM27.9313 16.8225V23.1309H29.9313V16.8225H27.9313ZM27.9313 10.514V16.8225H29.9313V10.514H27.9313ZM39.327 17.2357L31.77 9.80119L30.3674 11.2269L37.9244 18.6615L39.327 17.2357ZM36.1208 21.8157L39.327 18.6615L37.9244 17.2357L34.7182 20.39L36.1208 21.8157ZM39.327 23.5442L36.1208 20.39L34.7182 21.8157L37.9244 24.9699L39.327 23.5442ZM36.1208 28.1241L39.327 24.9699L37.9244 23.5442L34.7182 26.6984L36.1208 28.1241ZM39.327 29.8526L36.1208 26.6984L34.7182 28.1241L37.9244 31.2783L39.327 29.8526ZM31.77 38.7129L39.327 31.2783L37.9244 29.8526L30.3674 37.2871L31.77 38.7129ZM30.0687 31.6916V38H32.0687V31.6916H30.0687ZM30.0687 25.3831V31.6916H32.0687V25.3831H30.0687ZM30.0687 23.1309V25.3831H32.0687V23.1309H30.0687ZM30.0687 16.8225V23.1309H32.0687V16.8225H30.0687ZM30.0687 10.514V16.8225H32.0687V10.514H30.0687ZM54.289 35.1096L46.732 27.6751L45.3294 29.1008L52.8864 36.5353L54.289 35.1096ZM38.4738 36.8225H53.5877V34.8225H38.4738V36.8225ZM45.3294 27.6751L37.7725 35.1096L39.1751 36.5353L46.732 29.1008L45.3294 27.6751ZM13.2679 29.1008L20.8249 36.5353L22.2275 35.1096L14.6706 27.6751L13.2679 29.1008ZM7.11361 36.5353L14.6706 29.1008L13.2679 27.6751L5.71099 35.1096L7.11361 36.5353ZM21.5262 34.8225H6.4123V36.8225H21.5262V34.8225ZM59.2987 22.4928L51.7417 29.9273L53.1443 31.353L60.7013 23.9185L59.2987 22.4928ZM44.8861 24.2056H60V22.2056H44.8861V24.2056ZM53.1443 29.9273L45.5874 22.4928L44.1848 23.9185L51.7417 31.353L53.1443 29.9273ZM8.25827 31.353L15.8152 23.9185L14.4126 22.4928L6.85565 29.9273L8.25827 31.353ZM-0.70131 23.9185L6.85565 31.353L8.25827 29.9273L0.70131 22.4928L-0.70131 23.9185ZM15.1139 22.2056H0V24.2056H15.1139V22.2056ZM18.9454 18.7362L26.5024 11.3016L25.0998 9.87591L17.5428 17.3105L18.9454 18.7362ZM9.98585 11.3016L17.5428 18.7362L18.9454 17.3105L11.3885 9.87591L9.98585 11.3016ZM25.8011 9.58876H10.6872V11.5888H25.8011V9.58876ZM48.6115 9.87591L41.0546 17.3105L42.4572 18.7362L50.0141 11.3016L48.6115 9.87591ZM34.1989 11.5888H49.3128V9.58876H34.1989V11.5888ZM42.4572 17.3105L34.9002 9.87591L33.4976 11.3016L41.0546 18.7362L42.4572 17.3105Z" fill="#CCD3DE" mask="url(#path-3-inside-1)"/>
</svg>
