<svg width="148" height="39" viewBox="0 0 148 39" fill="none" xmlns="http://www.w3.org/2000/svg">
<path d="M35.2996 36V32.9092H32.2234V36H31.3201V29.2422H32.2234V32.0889H35.2996V29.2422H36.2029V36H35.2996ZM43.8707 32.6211C43.8707 33.8353 43.6412 34.7256 43.1822 35.292C42.7265 35.8584 42.0396 36.1416 41.1217 36.1416C40.1907 36.1416 39.499 35.8535 39.0465 35.2773C38.5973 34.7012 38.3727 33.8158 38.3727 32.6211C38.3727 31.4362 38.5956 30.554 39.0416 29.9746C39.4876 29.3919 40.1809 29.1006 41.1217 29.1006C42.0494 29.1006 42.7395 29.3854 43.192 29.9551C43.6445 30.5247 43.8707 31.4134 43.8707 32.6211ZM42.9234 32.6211C42.9234 31.6868 42.7818 31 42.4986 30.5605C42.2187 30.1211 41.7597 29.9014 41.1217 29.9014C40.4837 29.9014 40.023 30.1211 39.7398 30.5605C39.4599 31 39.3199 31.6868 39.3199 32.6211C39.3199 33.5618 39.4615 34.2503 39.7447 34.6865C40.0312 35.1227 40.4902 35.3408 41.1217 35.3408C41.7499 35.3408 42.2073 35.1243 42.4938 34.6914C42.7802 34.2585 42.9234 33.5684 42.9234 32.6211ZM48.1889 30.0576V36H47.2904V30.0576H45.0492V29.2422H50.4301V30.0576H48.1889ZM52.2189 36V29.2422H56.3498V30.0576H53.1223V32.0303H55.8811V32.8506H53.1223V35.1797H56.3498V36H52.2189ZM58.5537 36V29.2422H59.457V35.1797H62.5137V36H58.5537ZM72.3072 36L71.8482 35.458C71.5162 35.7152 71.1956 35.8942 70.8863 35.9951C70.5771 36.0928 70.2451 36.1416 69.8902 36.1416C69.148 36.1416 68.5654 35.9691 68.1422 35.624C67.719 35.279 67.5074 34.8184 67.5074 34.2422C67.5074 33.9525 67.553 33.7018 67.6441 33.4902C67.7353 33.2754 67.8785 33.0752 68.0738 32.8896C68.2724 32.7008 68.6077 32.4681 69.0797 32.1914C68.8583 31.9375 68.6712 31.6803 68.5182 31.4199C68.3652 31.1595 68.2887 30.8991 68.2887 30.6387C68.2887 29.6133 68.8925 29.1006 70.1002 29.1006C70.6308 29.1006 71.041 29.2243 71.3307 29.4717C71.6236 29.7158 71.7701 30.0283 71.7701 30.4092C71.7701 30.7705 71.6529 31.1058 71.4186 31.415C71.1842 31.721 70.8115 32.0286 70.3004 32.3379L71.9166 34.252C72.2161 33.9004 72.4293 33.4593 72.5563 32.9287L73.318 33.1191C73.1129 33.8711 72.8199 34.4554 72.4391 34.8721L73.3961 36H72.3072ZM70.9107 30.4189C70.9107 30.2269 70.8408 30.0674 70.7008 29.9404C70.5608 29.8135 70.3508 29.75 70.0709 29.75C69.7649 29.75 69.5338 29.8232 69.3775 29.9697C69.2245 30.1162 69.148 30.3262 69.148 30.5996C69.148 30.7721 69.2148 30.9577 69.3482 31.1562C69.4817 31.3516 69.6347 31.5534 69.8072 31.7617C70.1523 31.5697 70.4225 31.3581 70.6178 31.127C70.8131 30.8926 70.9107 30.6566 70.9107 30.4189ZM69.5777 32.7676C69.2392 32.9889 68.9918 33.1712 68.8355 33.3145C68.6826 33.4544 68.5751 33.5928 68.5133 33.7295C68.4514 33.8662 68.4205 34.0436 68.4205 34.2617C68.4205 34.6035 68.5572 34.8802 68.8307 35.0918C69.1074 35.3034 69.4671 35.4092 69.9098 35.4092C70.2874 35.4092 70.5934 35.349 70.8277 35.2285C71.0621 35.1081 71.2428 34.9958 71.3697 34.8916L69.5777 32.7676ZM82.5988 36L80.8752 33.2412H79.6984V36H78.7951V29.2422H80.8947C81.7346 29.2422 82.3368 29.3968 82.7014 29.7061C83.0659 30.0153 83.2482 30.4938 83.2482 31.1416C83.2482 31.695 83.1359 32.1328 82.9113 32.4551C82.69 32.7773 82.3286 32.9922 81.8273 33.0996L83.6584 36H82.5988ZM82.3156 31.21C82.3156 30.764 82.2017 30.458 81.9738 30.292C81.7492 30.1227 81.3863 30.0381 80.885 30.0381H79.6984V32.4404H80.8264C81.204 32.4404 81.5002 32.4014 81.715 32.3232C81.9331 32.2419 82.0878 32.1149 82.1789 31.9424C82.2701 31.7666 82.3156 31.5225 82.3156 31.21ZM85.54 36V29.2422H89.6709V30.0576H86.4434V32.0303H89.2021V32.8506H86.4434V35.1797H89.6709V36H85.54ZM96.4158 34.1494C96.4158 34.7809 96.2075 35.2708 95.7908 35.6191C95.3774 35.9674 94.7719 36.1416 93.9744 36.1416C93.3657 36.1416 92.8579 36.0342 92.451 35.8193C92.0441 35.6045 91.712 35.2708 91.4549 34.8184L92.1873 34.3301C92.5682 35.0039 93.1574 35.3408 93.9549 35.3408C94.4334 35.3408 94.8094 35.2415 95.0828 35.043C95.3595 34.8411 95.4979 34.5661 95.4979 34.2178C95.4979 34.0192 95.4539 33.8516 95.366 33.7148C95.2781 33.5781 95.1626 33.4642 95.0193 33.373C94.8761 33.2786 94.7117 33.2038 94.5262 33.1484C94.3406 33.0898 94.1469 33.0345 93.9451 32.9824C93.6131 32.901 93.3038 32.818 93.0174 32.7334C92.7309 32.6455 92.4819 32.5332 92.2703 32.3965C92.062 32.2598 91.8976 32.0856 91.7771 31.874C91.6567 31.6592 91.5965 31.3841 91.5965 31.0488C91.5965 30.4499 91.7885 29.9762 92.1727 29.6279C92.56 29.2764 93.1378 29.1006 93.9061 29.1006C94.518 29.1006 95.0063 29.2145 95.3709 29.4424C95.7355 29.667 96.0236 29.9567 96.2352 30.3115L95.5174 30.8193C95.3416 30.5264 95.1268 30.3001 94.8729 30.1406C94.6222 29.9811 94.2999 29.9014 93.9061 29.9014C93.4666 29.9014 93.1248 29.999 92.8807 30.1943C92.6365 30.3864 92.5145 30.6452 92.5145 30.9707C92.5145 31.1432 92.5503 31.2881 92.6219 31.4053C92.6967 31.5225 92.8025 31.6217 92.9393 31.7031C93.076 31.7812 93.2452 31.8496 93.4471 31.9082C93.6521 31.9635 93.8849 32.0238 94.1453 32.0889C94.4513 32.1702 94.7426 32.2565 95.0193 32.3477C95.296 32.4355 95.5369 32.5527 95.742 32.6992C95.9503 32.8457 96.1147 33.0345 96.2352 33.2656C96.3556 33.4967 96.4158 33.7913 96.4158 34.1494ZM103.761 32.6211C103.761 33.8353 103.532 34.7256 103.073 35.292C102.617 35.8584 101.93 36.1416 101.012 36.1416C100.081 36.1416 99.3896 35.8535 98.9371 35.2773C98.4879 34.7012 98.2633 33.8158 98.2633 32.6211C98.2633 31.4362 98.4863 30.554 98.9322 29.9746C99.3782 29.3919 100.072 29.1006 101.012 29.1006C101.94 29.1006 102.63 29.3854 103.083 29.9551C103.535 30.5247 103.761 31.4134 103.761 32.6211ZM102.814 32.6211C102.814 31.6868 102.672 31 102.389 30.5605C102.109 30.1211 101.65 29.9014 101.012 29.9014C100.374 29.9014 99.9137 30.1211 99.6305 30.5605C99.3505 31 99.2105 31.6868 99.2105 32.6211C99.2105 33.5618 99.3521 34.2503 99.6353 34.6865C99.9218 35.1227 100.381 35.3408 101.012 35.3408C101.641 35.3408 102.098 35.1243 102.384 34.6914C102.671 34.2585 102.814 33.5684 102.814 32.6211ZM109.735 36L108.011 33.2412H106.834V36H105.931V29.2422H108.031C108.871 29.2422 109.473 29.3968 109.837 29.7061C110.202 30.0153 110.384 30.4938 110.384 31.1416C110.384 31.695 110.272 32.1328 110.047 32.4551C109.826 32.7773 109.465 32.9922 108.963 33.0996L110.794 36H109.735ZM109.452 31.21C109.452 30.764 109.338 30.458 109.11 30.292C108.885 30.1227 108.522 30.0381 108.021 30.0381H106.834V32.4404H107.962C108.34 32.4404 108.636 32.4014 108.851 32.3232C109.069 32.2419 109.224 32.1149 109.315 31.9424C109.406 31.7666 109.452 31.5225 109.452 31.21ZM115.127 30.0576V36H114.229V30.0576H111.988V29.2422H117.368V30.0576H115.127Z" fill="#546681" fill-opacity="0.4"/>
<path d="M12.3506 14.8213C12.3506 15.6592 12.2002 16.3646 11.8994 16.9375C11.6058 17.5033 11.2048 17.9652 10.6963 18.3232C10.1878 18.6742 9.59342 18.9248 8.91309 19.0752C8.23991 19.2327 7.52376 19.3115 6.76465 19.3115C5.96257 19.3115 5.26074 19.2363 4.65918 19.0859C4.05762 18.9355 3.53125 18.7314 3.08008 18.4736C2.62891 18.2158 2.24219 17.915 1.91992 17.5713C1.60482 17.2275 1.3291 16.8587 1.09277 16.4648L3.06934 15.0361C3.24837 15.3154 3.44531 15.5804 3.66016 15.8311C3.88216 16.0745 4.13639 16.2894 4.42285 16.4756C4.71647 16.6618 5.05664 16.8122 5.44336 16.9268C5.83008 17.0342 6.27767 17.0879 6.78613 17.0879C7.16569 17.0879 7.53451 17.0521 7.89258 16.9805C8.25781 16.9089 8.58008 16.7907 8.85938 16.626C9.13867 16.4613 9.36068 16.2464 9.52539 15.9814C9.69727 15.7165 9.7832 15.387 9.7832 14.9932C9.7832 14.6208 9.70085 14.3092 9.53613 14.0586C9.37858 13.8079 9.16374 13.5967 8.8916 13.4248C8.61947 13.2529 8.30078 13.1097 7.93555 12.9951C7.57031 12.8805 7.18001 12.7695 6.76465 12.6621C6.00553 12.4688 5.30013 12.2718 4.64844 12.0713C3.99674 11.8636 3.43099 11.6022 2.95117 11.2871C2.47135 10.972 2.0918 10.571 1.8125 10.084C1.54036 9.59701 1.4043 8.97396 1.4043 8.21484C1.4043 7.54167 1.51888 6.93652 1.74805 6.39941C1.97721 5.85514 2.3138 5.39323 2.75781 5.01367C3.20182 4.62695 3.75326 4.33333 4.41211 4.13281C5.07812 3.92513 5.84082 3.82129 6.7002 3.82129C7.34473 3.82129 7.93197 3.88216 8.46191 4.00391C8.99902 4.11849 9.48242 4.29036 9.91211 4.51953C10.349 4.74154 10.7393 5.02083 11.083 5.35742C11.4268 5.68685 11.7275 6.06283 11.9854 6.48535L10.041 7.93555C9.64714 7.30534 9.18164 6.83268 8.64453 6.51758C8.10742 6.20247 7.45215 6.04492 6.67871 6.04492C5.84082 6.04492 5.1748 6.2168 4.68066 6.56055C4.19368 6.9043 3.9502 7.39128 3.9502 8.02148C3.9502 8.33659 4.01465 8.60156 4.14355 8.81641C4.27962 9.02409 4.48372 9.20671 4.75586 9.36426C5.03516 9.52181 5.38249 9.66504 5.79785 9.79395C6.22038 9.91569 6.7181 10.0446 7.29102 10.1807C7.73503 10.2881 8.16471 10.4027 8.58008 10.5244C9.0026 10.6462 9.40007 10.7894 9.77246 10.9541C10.152 11.1117 10.4993 11.3014 10.8145 11.5234C11.1296 11.7383 11.3981 11.9997 11.6201 12.3076C11.8493 12.6156 12.0283 12.9772 12.1572 13.3926C12.2861 13.8008 12.3506 14.277 12.3506 14.8213ZM21.041 19C20.7188 19.1003 20.3535 19.179 19.9453 19.2363C19.5443 19.3008 19.1611 19.333 18.7959 19.333C18.18 19.333 17.6536 19.2578 17.2168 19.1074C16.7871 18.9642 16.4326 18.7422 16.1533 18.4414C15.8812 18.1335 15.6807 17.7432 15.5518 17.2705C15.4229 16.7979 15.3584 16.2393 15.3584 15.5947V9.61133H13.8438V7.73145H15.3584V4.59473H17.668V7.73145H20.3965V9.61133H17.668V15.2402C17.668 15.6413 17.6895 15.9814 17.7324 16.2607C17.7826 16.5329 17.8613 16.7549 17.9688 16.9268C18.0762 17.0986 18.2158 17.224 18.3877 17.3027C18.5667 17.3815 18.7816 17.4209 19.0322 17.4209C19.2829 17.4209 19.5479 17.3923 19.8271 17.335C20.1064 17.2705 20.3499 17.1953 20.5576 17.1094L21.041 19ZM25.8857 17.7002C25.8857 18.2301 25.764 18.6061 25.5205 18.8281C25.277 19.043 24.8867 19.1504 24.3496 19.1504C24.056 19.1504 23.8125 19.1182 23.6191 19.0537C23.4258 18.9893 23.2682 18.8962 23.1465 18.7744C23.0319 18.6527 22.9495 18.5023 22.8994 18.3232C22.8493 18.137 22.8242 17.9294 22.8242 17.7002C22.8242 17.1917 22.9388 16.8193 23.168 16.583C23.3971 16.3467 23.791 16.2285 24.3496 16.2285C24.9154 16.2285 25.3128 16.3467 25.542 16.583C25.7712 16.8122 25.8857 17.1846 25.8857 17.7002ZM46.3496 19V7.84961L42.5254 15.0791H41.0215L37.2188 7.84961V19H34.8232V4.13281H37.9062L41.8164 11.7168L45.7588 4.13281H48.7666V19H46.3496ZM58.7568 19V17.7217C58.2269 18.1943 57.6647 18.5811 57.0703 18.8818C56.4831 19.1826 55.8421 19.333 55.1475 19.333C54.5745 19.333 54.0661 19.2471 53.6221 19.0752C53.1781 18.9033 52.8057 18.6634 52.5049 18.3555C52.2041 18.0404 51.9749 17.6715 51.8174 17.249C51.6598 16.8193 51.5811 16.3467 51.5811 15.8311C51.5811 15.1507 51.6921 14.5814 51.9141 14.123C52.1432 13.6647 52.4548 13.2923 52.8486 13.0059C53.2497 12.7122 53.7223 12.4938 54.2666 12.3506C54.818 12.2002 55.4196 12.0928 56.0713 12.0283L58.6494 11.7812V11.2549C58.6494 10.8825 58.5921 10.5745 58.4775 10.3311C58.3701 10.0804 58.209 9.87988 57.9941 9.72949C57.7865 9.5791 57.5251 9.47526 57.21 9.41797C56.902 9.35352 56.5511 9.32129 56.1572 9.32129C55.7777 9.32129 55.4447 9.3571 55.1582 9.42871C54.8789 9.50033 54.6354 9.59342 54.4277 9.70801C54.2201 9.82259 54.0482 9.95508 53.9121 10.1055C53.776 10.2487 53.6686 10.3919 53.5898 10.5352L51.7637 9.36426C51.8997 9.12077 52.0859 8.88444 52.3223 8.65527C52.5658 8.41895 52.8665 8.21126 53.2246 8.03223C53.5827 7.84603 54.0052 7.69564 54.4922 7.58105C54.9863 7.46647 55.5557 7.40918 56.2002 7.40918C56.988 7.40918 57.679 7.47363 58.2734 7.60254C58.8678 7.73145 59.362 7.94629 59.7559 8.24707C60.1569 8.54785 60.4577 8.95247 60.6582 9.46094C60.8587 9.96224 60.959 10.5889 60.959 11.3408V19H58.7568ZM58.6494 13.5215L57.0381 13.6719C56.5439 13.7148 56.1035 13.7829 55.7168 13.876C55.3372 13.9691 55.015 14.098 54.75 14.2627C54.4922 14.4274 54.2952 14.6351 54.1592 14.8857C54.0231 15.1292 53.9551 15.43 53.9551 15.7881C53.9551 16.3825 54.1126 16.805 54.4277 17.0557C54.7428 17.2992 55.1868 17.4209 55.7598 17.4209C55.9818 17.4209 56.2109 17.3815 56.4473 17.3027C56.6908 17.224 56.9342 17.1201 57.1777 16.9912C57.4284 16.8623 57.6755 16.7119 57.9189 16.54C58.1696 16.361 58.4131 16.1748 58.6494 15.9814V13.5215ZM70.7021 9.99805C70.5876 9.95508 70.4372 9.91569 70.251 9.87988C70.0719 9.84408 69.8857 9.82617 69.6924 9.82617C69.3773 9.82617 69.0801 9.86914 68.8008 9.95508C68.5215 10.041 68.2529 10.1592 67.9951 10.3096C67.7445 10.4528 67.501 10.6247 67.2646 10.8252C67.0283 11.0257 66.7956 11.237 66.5664 11.459V19H64.2568V7.73145H66.5664V9.4502C66.8099 9.19238 67.0605 8.94889 67.3184 8.71973C67.5762 8.49056 67.8447 8.29004 68.124 8.11816C68.4105 7.94629 68.7077 7.81022 69.0156 7.70996C69.3236 7.6097 69.6494 7.55957 69.9932 7.55957C70.2581 7.55957 70.4837 7.58105 70.6699 7.62402C70.8633 7.65983 71.028 7.71354 71.1641 7.78516L70.7021 9.99805ZM75.6543 4.7666C75.6543 5.23926 75.5397 5.56868 75.3105 5.75488C75.0885 5.93392 74.7412 6.02344 74.2686 6.02344C73.7529 6.02344 73.3949 5.91602 73.1943 5.70117C73.001 5.48633 72.9043 5.1748 72.9043 4.7666C72.9043 4.32259 73.0081 4.00391 73.2158 3.81055C73.4235 3.61003 73.7744 3.50977 74.2686 3.50977C74.7627 3.50977 75.1172 3.60645 75.332 3.7998C75.5469 3.99316 75.6543 4.31543 75.6543 4.7666ZM73.1299 19V7.73145H75.4395V19H73.1299ZM85.333 19V17.7217C84.8031 18.1943 84.2409 18.5811 83.6465 18.8818C83.0592 19.1826 82.4183 19.333 81.7236 19.333C81.1507 19.333 80.6423 19.2471 80.1982 19.0752C79.7542 18.9033 79.3818 18.6634 79.0811 18.3555C78.7803 18.0404 78.5511 17.6715 78.3936 17.249C78.236 16.8193 78.1572 16.3467 78.1572 15.8311C78.1572 15.1507 78.2682 14.5814 78.4902 14.123C78.7194 13.6647 79.0309 13.2923 79.4248 13.0059C79.8258 12.7122 80.2985 12.4938 80.8428 12.3506C81.3942 12.2002 81.9958 12.0928 82.6475 12.0283L85.2256 11.7812V11.2549C85.2256 10.8825 85.1683 10.5745 85.0537 10.3311C84.9463 10.0804 84.7852 9.87988 84.5703 9.72949C84.3626 9.5791 84.1012 9.47526 83.7861 9.41797C83.4782 9.35352 83.1273 9.32129 82.7334 9.32129C82.3538 9.32129 82.0208 9.3571 81.7344 9.42871C81.4551 9.50033 81.2116 9.59342 81.0039 9.70801C80.7962 9.82259 80.6243 9.95508 80.4883 10.1055C80.3522 10.2487 80.2448 10.3919 80.166 10.5352L78.3398 9.36426C78.4759 9.12077 78.6621 8.88444 78.8984 8.65527C79.1419 8.41895 79.4427 8.21126 79.8008 8.03223C80.1589 7.84603 80.5814 7.69564 81.0684 7.58105C81.5625 7.46647 82.1318 7.40918 82.7764 7.40918C83.5641 7.40918 84.2552 7.47363 84.8496 7.60254C85.444 7.73145 85.9382 7.94629 86.332 8.24707C86.7331 8.54785 87.0339 8.95247 87.2344 9.46094C87.4349 9.96224 87.5352 10.5889 87.5352 11.3408V19H85.333ZM85.2256 13.5215L83.6143 13.6719C83.1201 13.7148 82.6797 13.7829 82.293 13.876C81.9134 13.9691 81.5911 14.098 81.3262 14.2627C81.0684 14.4274 80.8714 14.6351 80.7354 14.8857C80.5993 15.1292 80.5312 15.43 80.5312 15.7881C80.5312 16.3825 80.6888 16.805 81.0039 17.0557C81.319 17.2992 81.763 17.4209 82.3359 17.4209C82.5579 17.4209 82.7871 17.3815 83.0234 17.3027C83.2669 17.224 83.5104 17.1201 83.7539 16.9912C84.0046 16.8623 84.2516 16.7119 84.4951 16.54C84.7458 16.361 84.9893 16.1748 85.2256 15.9814V13.5215ZM105.346 19V12.4473H99.0293V19H96.5264V4.13281H99.0293V10.1592H105.346V4.13281H107.859V19H105.346ZM121.115 13.3926C121.115 14.3092 121.015 15.1328 120.814 15.8633C120.621 16.5938 120.313 17.2168 119.891 17.7324C119.475 18.248 118.942 18.6455 118.29 18.9248C117.638 19.1969 116.858 19.333 115.948 19.333C115.032 19.333 114.244 19.1934 113.585 18.9141C112.926 18.6348 112.385 18.2373 111.963 17.7217C111.548 17.2061 111.24 16.583 111.039 15.8525C110.846 15.1221 110.749 14.3021 110.749 13.3926C110.749 12.4688 110.849 11.638 111.05 10.9004C111.25 10.1628 111.558 9.53613 111.974 9.02051C112.396 8.49772 112.933 8.10026 113.585 7.82812C114.244 7.54883 115.032 7.40918 115.948 7.40918C116.858 7.40918 117.638 7.54883 118.29 7.82812C118.942 8.10026 119.475 8.49772 119.891 9.02051C120.313 9.53613 120.621 10.1628 120.814 10.9004C121.015 11.638 121.115 12.4688 121.115 13.3926ZM118.72 13.3926C118.72 12.0534 118.501 11.0579 118.064 10.4062C117.635 9.75456 116.929 9.42871 115.948 9.42871C114.967 9.42871 114.251 9.75456 113.8 10.4062C113.356 11.0579 113.134 12.0534 113.134 13.3926C113.134 14.696 113.352 15.6771 113.789 16.3359C114.233 16.9948 114.953 17.3242 115.948 17.3242C116.915 17.3242 117.617 16.9948 118.054 16.3359C118.498 15.6771 118.72 14.696 118.72 13.3926ZM129.859 19C129.537 19.1003 129.172 19.179 128.764 19.2363C128.363 19.3008 127.979 19.333 127.614 19.333C126.998 19.333 126.472 19.2578 126.035 19.1074C125.605 18.9642 125.251 18.7422 124.972 18.4414C124.7 18.1335 124.499 17.7432 124.37 17.2705C124.241 16.7979 124.177 16.2393 124.177 15.5947V9.61133H122.662V7.73145H124.177V4.59473H126.486V7.73145H129.215V9.61133H126.486V15.2402C126.486 15.6413 126.508 15.9814 126.551 16.2607C126.601 16.5329 126.68 16.7549 126.787 16.9268C126.895 17.0986 127.034 17.224 127.206 17.3027C127.385 17.3815 127.6 17.4209 127.851 17.4209C128.101 17.4209 128.366 17.3923 128.646 17.335C128.925 17.2705 129.168 17.1953 129.376 17.1094L129.859 19ZM133.522 13.8545C133.53 14.4202 133.587 14.9215 133.694 15.3584C133.809 15.7881 133.984 16.1497 134.221 16.4434C134.457 16.7298 134.761 16.9482 135.134 17.0986C135.513 17.249 135.979 17.3242 136.53 17.3242C137.046 17.3242 137.501 17.2383 137.895 17.0664C138.296 16.8874 138.664 16.5866 139.001 16.1641L140.773 17.3672C140.559 17.6895 140.319 17.9723 140.054 18.2158C139.789 18.4593 139.481 18.6634 139.13 18.8281C138.779 18.9928 138.378 19.1182 137.927 19.2041C137.483 19.29 136.974 19.333 136.401 19.333C134.604 19.333 133.275 18.8389 132.416 17.8506C131.564 16.8551 131.138 15.3906 131.138 13.457C131.138 12.5475 131.227 11.724 131.406 10.9863C131.592 10.2415 131.886 9.60417 132.287 9.07422C132.695 8.54427 133.225 8.13607 133.877 7.84961C134.529 7.55599 135.327 7.40918 136.272 7.40918C137.11 7.40918 137.823 7.53451 138.41 7.78516C139.005 8.03581 139.488 8.3903 139.86 8.84863C140.233 9.30697 140.505 9.8584 140.677 10.5029C140.849 11.1475 140.935 11.86 140.935 12.6406V13.8545H133.522ZM138.646 12.1572C138.646 11.2191 138.45 10.5065 138.056 10.0195C137.662 9.52539 137.042 9.27832 136.197 9.27832C135.768 9.27832 135.399 9.34277 135.091 9.47168C134.79 9.59342 134.536 9.77604 134.328 10.0195C134.128 10.263 133.966 10.5638 133.845 10.9219C133.723 11.2799 133.63 11.6917 133.565 12.1572H138.646ZM143.706 19V3.00488H146.016V19H143.706Z" fill="#546681"/>
</svg>
