<svg width="132" height="46" viewBox="0 0 132 46" fill="none" xmlns="http://www.w3.org/2000/svg">
<path d="M9.75 7.025C11.35 7.025 12.8917 7.31667 14.375 7.9L13.125 11.95L12.425 12.25C11.775 11.8167 11.1167 11.475 10.45 11.225C9.8 10.975 9.26667 10.85 8.85 10.85C8.43333 10.85 8.1 10.9417 7.85 11.125C7.61667 11.2917 7.5 11.5 7.5 11.75C7.5 12.0667 7.65833 12.3417 7.975 12.575C8.30833 12.7917 8.83333 13.0667 9.55 13.4C10.3667 13.7833 11.0417 14.15 11.575 14.5C12.125 14.8333 12.6 15.2917 13 15.875C13.4 16.4417 13.6 17.1333 13.6 17.95C13.6 19 13.2833 19.975 12.65 20.875C12.0333 21.775 11.1583 22.4917 10.025 23.025C8.90833 23.5417 7.63333 23.8 6.2 23.8C4.48333 23.8 2.725 23.4833 0.925 22.85L2.125 18.525L2.65 18.225C3.36667 18.825 4.14167 19.2917 4.975 19.625C5.80833 19.9583 6.525 20.125 7.125 20.125C7.60833 20.125 7.95833 20.0417 8.175 19.875C8.39167 19.6917 8.5 19.475 8.5 19.225C8.5 18.8917 8.325 18.6083 7.975 18.375C7.64167 18.125 7.11667 17.8333 6.4 17.5C5.58333 17.1167 4.91667 16.7583 4.4 16.425C3.88333 16.0917 3.43333 15.6417 3.05 15.075C2.66667 14.5083 2.475 13.8167 2.475 13C2.475 11.9 2.79167 10.8917 3.425 9.975C4.05833 9.05833 4.925 8.34167 6.025 7.825C7.14167 7.29167 8.38333 7.025 9.75 7.025ZM24.6485 11.65C25.6985 11.8333 26.5235 12.175 27.1235 12.675C27.7235 13.1583 28.0152 13.7417 27.9985 14.425L27.9735 14.775L27.0235 20.525L26.9235 23.325L22.3985 23.6L23.4485 17L23.4985 16.75C23.4985 16.3833 23.3568 16.2 23.0735 16.2C22.8235 16.2 22.4735 16.4333 22.0235 16.9C21.5735 17.35 21.0652 18.0417 20.4985 18.975L20.2735 20.6L20.1985 23.325L15.7485 23.6L17.7235 9L17.7985 6.175L22.2485 5.9L21.0485 14.875H21.4735C22.4235 13.6417 23.3735 12.575 24.3235 11.675L24.6485 11.65ZM41.5726 11.6L40.3976 20.6L40.2976 23.325L35.8726 23.6L36.2476 20.85H35.8476C35.2642 22.0167 34.6476 22.9917 33.9976 23.775H33.4226C32.1226 23.4583 31.2226 22.9583 30.7226 22.275C30.2226 21.575 29.9726 20.675 29.9726 19.575C29.9726 18.5083 30.1892 17.45 30.6226 16.4C31.0559 15.3333 31.7226 14.375 32.6226 13.525C33.5226 12.6583 34.6392 12 35.9726 11.55H36.1476L38.5726 11.975L41.2976 11.4L41.5726 11.6ZM34.5976 19.7C34.8642 19.7 35.1809 19.3833 35.5476 18.75C35.9142 18.1167 36.3726 17.125 36.9226 15.775L36.9976 15.225L35.2976 14.8C34.4809 14.8 34.0726 15.775 34.0726 17.725C34.0726 19.0417 34.2476 19.7 34.5976 19.7ZM55.6201 11.6L54.4451 20.6L54.3451 23.325L49.9201 23.6L50.3201 20.575H49.9951C49.1451 21.7417 48.2784 22.7417 47.3951 23.575L47.0701 23.6C46.0034 23.4833 45.1617 23.1833 44.5451 22.7C43.9284 22.2 43.6201 21.5917 43.6201 20.875L43.6701 20.375L44.5951 14.725L44.6951 11.925L49.2201 11.65L48.1701 18.2L48.1451 18.525C48.1451 18.9083 48.2951 19.1 48.5951 19.1C49.0784 19.1 49.8201 18.3083 50.8201 16.725L51.0951 14.7L51.1951 11.875L55.6201 11.6ZM67.1523 11.75L66.4523 17.15L66.0523 17.325L65.1523 17.15C64.6023 17.1833 64.119 17.2917 63.7023 17.475C63.3023 17.6583 62.8607 17.975 62.3773 18.425L62.1023 20.6L62.0023 23.325L57.5773 23.6L58.7523 14.7L58.8523 11.875L63.2773 11.6L62.8773 14.7H63.3023C63.769 13.9833 64.244 13.3833 64.7273 12.9C65.2107 12.4167 65.7773 11.9917 66.4273 11.625L67.1523 11.75ZM83.987 11.65C85.037 11.8333 85.862 12.175 86.462 12.675C87.0786 13.1583 87.3786 13.7417 87.362 14.425L87.337 14.775L86.387 20.525L86.312 23.325L81.762 23.6L82.837 17L82.862 16.75C82.862 16.3833 82.7286 16.2 82.462 16.2C82.1953 16.2 81.8286 16.4417 81.362 16.925C80.8953 17.3917 80.387 18.0917 79.837 19.025L79.587 20.525L79.512 23.325L74.962 23.6L76.037 17L76.062 16.75C76.062 16.3833 75.9286 16.2 75.662 16.2C75.412 16.2 75.0703 16.425 74.637 16.875C74.2036 17.3083 73.7036 17.975 73.137 18.875L72.912 20.6L72.812 23.325L68.387 23.6L69.562 14.7L69.662 11.875L74.087 11.6L73.662 14.875H74.062C75.012 13.6417 75.962 12.575 76.912 11.675L77.237 11.65C78.2703 11.8333 79.087 12.175 79.687 12.675C80.287 13.1583 80.5786 13.7417 80.562 14.425L80.537 14.775L80.512 14.875H80.862C81.7453 13.7083 82.6786 12.6417 83.662 11.675L83.987 11.65ZM100.949 11.6L99.7737 20.6L99.6737 23.325L95.2487 23.6L95.6237 20.85H95.2237C94.6404 22.0167 94.0237 22.9917 93.3737 23.775H92.7987C91.4987 23.4583 90.5987 22.9583 90.0987 22.275C89.5987 21.575 89.3487 20.675 89.3487 19.575C89.3487 18.5083 89.5654 17.45 89.9987 16.4C90.4321 15.3333 91.0987 14.375 91.9987 13.525C92.8987 12.6583 94.0154 12 95.3487 11.55H95.5237L97.9487 11.975L100.674 11.4L100.949 11.6ZM93.9737 19.7C94.2404 19.7 94.5571 19.3833 94.9237 18.75C95.2904 18.1167 95.7487 17.125 96.2987 15.775L96.3737 15.225L94.6737 14.8C93.8571 14.8 93.4487 15.775 93.4487 17.725C93.4487 19.0417 93.6237 19.7 93.9737 19.7ZM111.746 11.65C112.696 11.8333 113.496 12.175 114.146 12.675C114.796 13.175 115.113 13.7583 115.096 14.425L115.071 14.775L114.121 20.525L114.021 23.325L109.471 23.6L110.571 17L110.596 16.75C110.596 16.3833 110.455 16.2 110.171 16.2C109.921 16.2 109.58 16.4167 109.146 16.85C108.73 17.2833 108.238 17.9417 107.671 18.825L107.446 20.6L107.346 23.325L102.921 23.6L104.096 14.7L104.196 11.875L108.621 11.6L108.196 14.875H108.571C109.521 13.6417 110.471 12.575 111.421 11.675L111.746 11.65ZM126.071 11.65C127.021 11.8333 127.821 12.175 128.471 12.675C129.121 13.175 129.438 13.7583 129.421 14.425L129.396 14.775L128.446 20.525L128.346 23.325L123.796 23.6L124.896 17L124.921 16.75C124.921 16.3833 124.78 16.2 124.496 16.2C124.246 16.2 123.905 16.4167 123.471 16.85C123.055 17.2833 122.563 17.9417 121.996 18.825L121.771 20.6L121.671 23.325L117.246 23.6L118.421 14.7L118.521 11.875L122.946 11.6L122.521 14.875H122.896C123.846 13.6417 124.796 12.575 125.746 11.675L126.071 11.65Z" fill="#424242"/>
<path d="M51.873 40.5V34.38H50.865V37.026H48.3V34.335L47.292 34.38V40.5H48.3V37.836H50.865V40.5H51.873ZM58.1961 34.236C57.6261 34.248 57.1161 34.395 56.6661 34.677C56.2161 34.953 55.8651 35.334 55.6131 35.82C55.3671 36.306 55.2441 36.855 55.2441 37.467C55.2441 38.067 55.3641 38.607 55.6041 39.087C55.8501 39.567 56.1951 39.945 56.6391 40.221C57.0891 40.491 57.6051 40.626 58.1871 40.626C58.7631 40.62 59.2761 40.479 59.7261 40.203C60.1761 39.927 60.5271 39.546 60.7791 39.06C61.0311 38.574 61.1571 38.022 61.1571 37.404C61.1571 36.804 61.0341 36.264 60.7881 35.784C60.5481 35.304 60.2031 34.926 59.7531 34.65C59.3031 34.374 58.7841 34.236 58.1961 34.236ZM56.2971 37.458C56.2971 37.002 56.3811 36.594 56.5491 36.234C56.7171 35.874 56.9481 35.595 57.2421 35.397C57.5361 35.199 57.8601 35.1 58.2141 35.1C58.5861 35.1 58.9131 35.199 59.1951 35.397C59.4831 35.595 59.7051 35.868 59.8611 36.216C60.0171 36.564 60.0951 36.96 60.0951 37.404C60.0951 37.884 60.0111 38.304 59.8431 38.664C59.6751 39.018 59.4441 39.291 59.1501 39.483C58.8621 39.675 58.5381 39.771 58.1781 39.771C57.8061 39.771 57.4761 39.672 57.1881 39.474C56.9061 39.276 56.6871 39.003 56.5311 38.655C56.3751 38.301 56.2971 37.902 56.2971 37.458ZM68.7297 34.38H63.8337V35.181H65.7597V40.5H66.7857V35.181H68.8827L68.7297 34.38ZM76.0832 40.5L75.9302 39.708H73.0142V37.791H75.2012L75.0482 36.999H73.0142V35.172H75.6962L75.5522 34.38H72.0062V40.5H76.0832ZM83.0271 39.708H80.3001V34.38H79.2921V40.5H83.1711L83.0271 39.708Z" fill="#424242"/>
</svg>
